<?xml version="1.0" encoding="iso-8859-1"?>
<!-- Generator: Adobe Illustrator 17.1.0, SVG Export Plug-In . SVG Version: 6.00 Build 0)  -->
<!DOCTYPE svg PUBLIC "-//W3C//DTD SVG 1.1//EN" "http://www.w3.org/Graphics/SVG/1.1/DTD/svg11.dtd">
<svg version="1.1" id="Capa_1" xmlns="http://www.w3.org/2000/svg" xmlns:xlink="http://www.w3.org/1999/xlink" x="0px" y="0px"
	 viewBox="0 0 301.884 301.884" style="enable-background:new 0 0 301.884 301.884;" xml:space="preserve">
<path style="fill:#000002;" d="M297.658,125.357L159.503,17.28c-2.361-1.848-5.401-2.865-8.562-2.865c-3.16,0-6.2,1.018-8.56,2.864
	L4.226,125.357c-5.416,4.236-4.265,9.128-3.782,10.526c0.481,1.398,2.589,5.961,9.465,5.961h27.5v133.125
	c0,6.893,5.607,12.5,12.5,12.5h64.7c6.892,0,12.5-5.607,12.5-12.5v-59.578h47.666v59.578c0,6.893,5.607,12.5,12.5,12.5h64.7
	c6.893,0,12.5-5.607,12.5-12.5V141.844h27.5c6.876,0,8.983-4.563,9.465-5.961C301.922,134.485,303.074,129.593,297.658,125.357z
	 M261.975,126.844c-6.893,0-12.5,5.607-12.5,12.5v133.125h-59.7v-59.578c0-6.893-5.607-12.5-12.5-12.5h-52.666
	c-6.893,0-12.5,5.607-12.5,12.5v59.578h-59.7V139.344c0-6.893-5.608-12.5-12.5-12.5H26.669l124.272-97.217l124.272,97.217H261.975z"
	/>
<g>
</g>
<g>
</g>
<g>
</g>
<g>
</g>
<g>
</g>
<g>
</g>
<g>
</g>
<g>
</g>
<g>
</g>
<g>
</g>
<g>
</g>
<g>
</g>
<g>
</g>
<g>
</g>
<g>
</g>
</svg>
