<?xml version="1.0" encoding="iso-8859-1"?>
<!-- Generator: Adobe Illustrator 17.1.0, SVG Export Plug-In . SVG Version: 6.00 Build 0)  -->
<!DOCTYPE svg PUBLIC "-//W3C//DTD SVG 1.1//EN" "http://www.w3.org/Graphics/SVG/1.1/DTD/svg11.dtd">
<svg version="1.1" id="Capa_1" xmlns="http://www.w3.org/2000/svg" xmlns:xlink="http://www.w3.org/1999/xlink" x="0px" y="0px"
	 viewBox="0 0 232.277 232.277" style="enable-background:new 0 0 232.277 232.277;" xml:space="preserve">
<g>
	<path style="fill:#000002;" d="M204.74,35.346h-4.193V10.5c0-5.79-4.71-10.5-10.5-10.5h-76.741c-5.789,0-10.5,4.71-10.5,10.5
		v24.846h-2.351c-0.429-3.7-2.017-7.133-4.641-9.857c-3.249-3.374-7.637-5.232-12.354-5.232H25.626
		c-4.717,0-9.104,1.858-12.354,5.232c-3.25,3.375-4.942,7.829-4.766,12.542l2.901,77.307c0.197,5.266,0.201,14.165,0.008,19.431
		L8.497,214.51c-0.172,4.712,1.524,9.165,4.776,12.537c3.252,3.372,7.639,5.229,12.353,5.229H83.46c4.715,0,9.103-1.857,12.354-5.23
		c1.899-1.97,3.249-4.315,4.025-6.858h101.452c12.407,0,22.5-10.093,22.5-22.5V57.846C223.792,45.439,215.245,35.346,204.74,35.346z
		 M117.806,15h67.741v53.765h-67.741V15z M85.016,216.636c-0.282,0.292-0.78,0.641-1.555,0.641H25.626
		c-0.775,0-1.273-0.349-1.555-0.641c-0.282-0.292-0.612-0.804-0.584-1.578l2.919-79.741c0.207-5.664,0.203-14.878-0.009-20.542
		l-2.901-77.307c-0.029-0.773,0.299-1.283,0.58-1.574c0.28-0.291,0.777-0.638,1.55-0.638H83.46c0.773,0,1.27,0.347,1.55,0.638
		c0.281,0.292,0.609,0.801,0.58,1.574l-2.9,77.308c-0.212,5.666-0.217,14.881-0.01,20.541l2.918,79.741
		C85.627,215.833,85.297,216.344,85.016,216.636z M208.792,197.689c0,4.136-3.364,7.5-7.5,7.5H100.248l-2.577-70.42
		c-0.193-5.263-0.188-14.161,0.009-19.431l2.438-64.992h2.688v22.919c0,5.79,4.711,10.5,10.5,10.5h76.741
		c5.79,0,10.5-4.71,10.5-10.5V50.346h4.193c1.613,0,4.052,2.991,4.052,7.5V197.689z"/>
	<path style="fill:#000002;" d="M122.743,105.45h-8.435c-4.142,0-7.5,3.358-7.5,7.5c0,4.142,3.358,7.5,7.5,7.5h8.435
		c4.142,0,7.5-3.358,7.5-7.5C130.243,108.808,126.885,105.45,122.743,105.45z"/>
	<path style="fill:#000002;" d="M155.394,105.45h-8.435c-4.142,0-7.5,3.358-7.5,7.5c0,4.142,3.358,7.5,7.5,7.5h8.435
		c4.142,0,7.5-3.358,7.5-7.5C162.894,108.808,159.536,105.45,155.394,105.45z"/>
	<path style="fill:#000002;" d="M188.044,105.45h-8.435c-4.142,0-7.5,3.358-7.5,7.5c0,4.142,3.358,7.5,7.5,7.5h8.435
		c4.142,0,7.5-3.358,7.5-7.5C195.544,108.808,192.187,105.45,188.044,105.45z"/>
	<path style="fill:#000002;" d="M122.743,134.156h-8.435c-4.142,0-7.5,3.358-7.5,7.5s3.358,7.5,7.5,7.5h8.435
		c4.142,0,7.5-3.358,7.5-7.5S126.885,134.156,122.743,134.156z"/>
	<path style="fill:#000002;" d="M155.394,134.156h-8.435c-4.142,0-7.5,3.358-7.5,7.5s3.358,7.5,7.5,7.5h8.435
		c4.142,0,7.5-3.358,7.5-7.5S159.536,134.156,155.394,134.156z"/>
	<path style="fill:#000002;" d="M188.044,134.156h-8.435c-4.142,0-7.5,3.358-7.5,7.5s3.358,7.5,7.5,7.5h8.435
		c4.142,0,7.5-3.358,7.5-7.5S192.187,134.156,188.044,134.156z"/>
	<path style="fill:#000002;" d="M122.743,162.861h-8.435c-4.142,0-7.5,3.358-7.5,7.5s3.358,7.5,7.5,7.5h8.435
		c4.142,0,7.5-3.358,7.5-7.5S126.885,162.861,122.743,162.861z"/>
	<path style="fill:#000002;" d="M155.394,162.861h-8.435c-4.142,0-7.5,3.358-7.5,7.5s3.358,7.5,7.5,7.5h8.435
		c4.142,0,7.5-3.358,7.5-7.5S159.536,162.861,155.394,162.861z"/>
	<path style="fill:#000002;" d="M188.044,162.861h-8.435c-4.142,0-7.5,3.358-7.5,7.5s3.358,7.5,7.5,7.5h8.435
		c4.142,0,7.5-3.358,7.5-7.5S192.187,162.861,188.044,162.861z"/>
	<path style="fill:#000002;" d="M169.344,22.756H134.01c-2.761,0-5,2.239-5,5c0,2.761,2.239,5,5,5h35.334c2.761,0,5-2.239,5-5
		C174.344,24.995,172.105,22.756,169.344,22.756z"/>
	<path style="fill:#000002;" d="M154.876,44.333H134.01c-2.761,0-5,2.239-5,5s2.239,5,5,5h20.866c2.761,0,5-2.239,5-5
		S157.637,44.333,154.876,44.333z"/>
</g>
<g>
</g>
<g>
</g>
<g>
</g>
<g>
</g>
<g>
</g>
<g>
</g>
<g>
</g>
<g>
</g>
<g>
</g>
<g>
</g>
<g>
</g>
<g>
</g>
<g>
</g>
<g>
</g>
<g>
</g>
</svg>
