<?xml version='1.0' encoding='utf-8'?>
<!DOCTYPE svg PUBLIC '-//W3C//DTD SVG 1.1//EN' 'http://www.w3.org/Graphics/SVG/1.1/DTD/svg11.dtd'>
<svg width="64" version="1.1" xmlns="http://www.w3.org/2000/svg" height="64" viewBox="0 0 64 64" xmlns:xlink="http://www.w3.org/1999/xlink" enable-background="new 0 0 64 64">
  <g>
    <g fill="#1D1D1B">
      <path d="m60.135,3.875c-5.156-5.166-13.545-5.168-18.697,0l-11.576,11.619c-0.788,0.791-0.788,2.074 0,2.865 0.79,0.792 2.067,0.792 2.856,0l11.576-11.618c3.578-3.589 9.401-3.587 12.984,0 3.578,3.591 3.578,9.435 0,13.024l-15.292,15.339c-1.732,1.739-4.038,2.697-6.49,2.697-2.451,0-4.758-0.959-6.492-2.697-0.789-0.792-2.067-0.792-2.857,0-0.788,0.791-0.788,2.074 0,2.865 2.499,2.505 5.818,3.885 9.35,3.885s6.848-1.381 9.347-3.885l15.292-15.338c5.152-5.17 5.152-13.584-0.001-18.756z"/>
      <path d="m31.015,45.904l-11.312,11.346c-1.732,1.739-4.039,2.697-6.491,2.697-2.451,0-4.759-0.958-6.489-2.697-3.578-3.591-3.578-9.434 0-13.023l15.289-15.338c3.582-3.588 9.406-3.588 12.983,0 0.789,0.793 2.067,0.793 2.856,0 0.789-0.791 0.789-2.072 0-2.864-5.152-5.17-13.541-5.17-18.697,0l-15.288,15.336c-5.155,5.17-5.155,13.584 4.44089e-16,18.754 2.497,2.506 5.816,3.885 9.346,3.885 3.531,0 6.853-1.379 9.348-3.885l11.31-11.345c0.79-0.791 0.79-2.074 0-2.865-0.788-0.792-2.067-0.792-2.855-0.001z"/>
    </g>
  </g>
</svg>
