<?xml version="1.0" encoding="iso-8859-1"?>
<!-- Generator: Adobe Illustrator 19.1.0, SVG Export Plug-In . SVG Version: 6.00 Build 0)  -->
<svg version="1.1" id="Capa_1" xmlns="http://www.w3.org/2000/svg" xmlns:xlink="http://www.w3.org/1999/xlink" x="0px" y="0px"
	 viewBox="0 0 67.778 67.778" style="enable-background:new 0 0 67.778 67.778;" xml:space="preserve">
<g>
	<g>
		<path d="M63.097,40.655c-0.433-1.018-1.604-1.49-2.623-1.059l-10.635,4.52c-1.017,0.433-1.49,1.606-1.059,2.623
			c0.433,1.018,1.604,1.489,2.623,1.059l5.577-2.477c-2.709,9.697-11.454,16.783-21.454,17.747V18.307
			c4-0.986,7.044-4.514,7.044-8.715c0-4.962-3.912-8.999-8.874-8.999s-9.188,4.037-9.188,8.999c0,4.349,3.018,7.985,7.018,8.819
			v44.705c-10-0.694-18.939-7.847-21.669-17.983l6.393,2.664c1.018,0.431,2.253-0.041,2.686-1.059
			c0.432-1.017-0.011-2.19-1.027-2.623L7.29,39.595c-1.019-0.432-2.184,0.041-2.615,1.059L0.159,51.288
			c-0.432,1.017,0.044,2.19,1.061,2.623c0.255,0.108,0.521,0.16,0.782,0.16c0.778-0.001,1.519-0.457,1.842-1.219l2.575-6.057
			c3.544,12.087,14.506,20.391,27.274,20.391c12.844,0,24.086-8.713,27.431-20.952l2.812,6.618c0.323,0.762,1.063,1.219,1.842,1.219
			c0.261,0,0.526-0.052,0.781-0.16c1.017-0.433,1.491-1.606,1.059-2.623L63.097,40.655z M28.821,9.593c0-2.757,2.243-4.999,5-4.999
			c2.756,0,4.999,2.242,4.999,4.999s-2.243,5-4.999,5C31.064,14.593,28.821,12.349,28.821,9.593z"/>
	</g>
</g>
<g>
</g>
<g>
</g>
<g>
</g>
<g>
</g>
<g>
</g>
<g>
</g>
<g>
</g>
<g>
</g>
<g>
</g>
<g>
</g>
<g>
</g>
<g>
</g>
<g>
</g>
<g>
</g>
<g>
</g>
</svg>
