<?xml version="1.0" encoding="iso-8859-1"?>
<!-- Generator: Adobe Illustrator 19.1.0, SVG Export Plug-In . SVG Version: 6.00 Build 0)  -->
<svg version="1.1" id="Capa_1" xmlns="http://www.w3.org/2000/svg" xmlns:xlink="http://www.w3.org/1999/xlink" x="0px" y="0px"
	 viewBox="0 0 62 62" style="enable-background:new 0 0 62 62;" xml:space="preserve">
<g>
	<g>
		<path d="M2,18h4c1.104,0,2-0.896,2-2s-0.896-2-2-2H2c-1.104,0-2,0.896-2,2S0.896,18,2,18z"/>
		<path d="M2,33h4c1.104,0,2-0.896,2-2s-0.896-2-2-2H2c-1.104,0-2,0.896-2,2S0.896,33,2,33z"/>
		<path d="M2,48h4c1.104,0,2-0.896,2-2s-0.896-2-2-2H2c-1.104,0-2,0.896-2,2S0.896,48,2,48z"/>
		<path d="M16,18h44c1.104,0,2-0.896,2-2s-0.896-2-2-2H16c-1.104,0-2,0.896-2,2S14.896,18,16,18z"/>
		<path d="M16,33h44c1.104,0,2-0.896,2-2s-0.896-2-2-2H16c-1.104,0-2,0.896-2,2S14.896,33,16,33z"/>
		<path d="M16,48h44c1.104,0,2-0.896,2-2s-0.896-2-2-2H16c-1.104,0-2,0.896-2,2S14.896,48,16,48z"/>
	</g>
</g>
<g>
</g>
<g>
</g>
<g>
</g>
<g>
</g>
<g>
</g>
<g>
</g>
<g>
</g>
<g>
</g>
<g>
</g>
<g>
</g>
<g>
</g>
<g>
</g>
<g>
</g>
<g>
</g>
<g>
</g>
</svg>
