<?xml version="1.0" encoding="iso-8859-1"?>
<!-- Generator: Adobe Illustrator 19.0.0, SVG Export Plug-In . SVG Version: 6.00 Build 0)  -->
<svg version="1.1" id="Layer_1" xmlns="http://www.w3.org/2000/svg" xmlns:xlink="http://www.w3.org/1999/xlink" x="0px" y="0px"
	 viewBox="0 0 321.493 321.493" style="enable-background:new 0 0 321.493 321.493;" xml:space="preserve">
<g>
	<g>
		<path d="M294.507,0c-14.933,0-26.987,12.053-26.987,26.987s12.053,26.987,26.987,26.987s26.987-12.053,26.987-26.987
			C321.493,12.053,309.44,0,294.507,0z M294.507,40.107c-7.253,0-13.12-5.867-13.12-13.12c0-7.253,5.867-13.12,13.12-13.12
			c7.253,0,13.12,5.867,13.12,13.12C307.627,34.24,301.76,40.107,294.507,40.107z"/>
	</g>
</g>
<g>
	<g>
		<path d="M26.987,153.813C12.053,153.813,0,165.867,0,180.8s12.053,26.987,26.987,26.987s26.987-12.053,26.987-26.987
			S41.92,153.813,26.987,153.813z M26.987,193.92c-7.253,0-13.12-5.867-13.12-13.12s5.867-13.12,13.12-13.12
			c7.253,0,13.12,5.867,13.12,13.12S34.24,193.92,26.987,193.92z"/>
	</g>
</g>
<g>
	<g>
		<path d="M107.2,73.6c-14.933,0-26.987,12.053-26.987,26.987c0,14.933,12.053,26.987,26.987,26.987
			c14.933,0,26.987-12.053,26.987-26.987C134.187,85.653,122.133,73.6,107.2,73.6z M107.2,113.707c-7.253,0-13.12-5.867-13.12-13.12
			c0-7.253,5.867-13.12,13.12-13.12c7.253,0,13.12,5.867,13.12,13.12C120.32,107.84,114.453,113.707,107.2,113.707z"/>
	</g>
</g>
<g>
	<g>
		<path d="M164.053,130.453c-14.933,0-26.987,12.053-26.987,26.987c0,14.933,12.053,26.987,26.987,26.987
			s26.987-12.053,26.987-26.987C191.04,142.507,178.987,130.453,164.053,130.453z M164.053,170.56c-7.253,0-13.12-5.867-13.12-13.12
			s5.867-13.12,13.12-13.12c7.253,0,13.12,5.867,13.12,13.12S171.307,170.56,164.053,170.56z"/>
	</g>
</g>
<g>
	<g>
		
			<rect x="157.096" y="85.186" transform="matrix(0.7064 -0.7078 0.7078 0.7064 2.1055 189.3136)" width="144.319" height="13.867"/>
	</g>
</g>
<g>
	<g>
		
			<rect x="128.775" y="108.816" transform="matrix(0.7058 -0.7084 0.7084 0.7058 -51.4425 134.0808)" width="13.867" height="40.32"/>
	</g>
</g>
<g>
	<g>
		<rect x="30.499" y="133.716" transform="matrix(0.7071 -0.7071 0.7071 0.7071 -79.79 88.6693)" width="73.279" height="13.867"/>
	</g>
</g>
<g>
	<g>
		<rect x="0.213" y="307.627" width="321.067" height="13.867"/>
	</g>
</g>
<g>
	<g>
		<rect x="287.573" y="113.92" width="13.867" height="200.64"/>
	</g>
</g>
<g>
	<g>
		<rect x="160.533" y="214.293" width="13.867" height="100.267"/>
	</g>
</g>
<g>
	<g>
		<rect x="20.053" y="234.347" width="13.867" height="80.213"/>
	</g>
</g>
<g>
	<g>
		<rect x="100.267" y="174.08" width="13.867" height="140.48"/>
	</g>
</g>
<g>
</g>
<g>
</g>
<g>
</g>
<g>
</g>
<g>
</g>
<g>
</g>
<g>
</g>
<g>
</g>
<g>
</g>
<g>
</g>
<g>
</g>
<g>
</g>
<g>
</g>
<g>
</g>
<g>
</g>
</svg>
