<?xml version="1.0" encoding="iso-8859-1"?>
<!-- Generator: Adobe Illustrator 19.0.0, SVG Export Plug-In . SVG Version: 6.00 Build 0)  -->
<svg version="1.1" id="Layer_1" xmlns="http://www.w3.org/2000/svg" xmlns:xlink="http://www.w3.org/1999/xlink" x="0px" y="0px"
	 viewBox="0 0 512 512" style="enable-background:new 0 0 512 512;" xml:space="preserve">
<g>
	<g>
		<circle cx="118.41" cy="320.841" r="10"/>
	</g>
</g>
<g>
	<g>
		<path d="M512,237.309v-1.036c0-23.155-18.838-41.994-41.994-41.994H350.149c15.413-26.735,23.735-56.703,24.227-87.684
			c0.083-5.196,0.042-10.56-0.002-16.239c-0.028-3.669-0.058-7.549-0.058-11.741c0-21.667-17.585-39.3-39.221-39.354
			c-4.035-0.04-17.479,0.625-28.057,11.673c-4.815,5.029-8.141,11.369-9.618,18.332c-2.858,13.467-6.424,24.965-10.902,35.151
			c-16.412,37.332-39.801,68.519-69.516,92.694c-7.91,6.435-16.312,12.369-25.085,17.76c-3.292-11.86-14.177-20.593-27.071-20.593
			H10c-5.523,0-10,4.478-10,10v258.463c0,5.522,4.477,10,10,10h154.846c14.674,0,26.748-11.309,27.984-25.667
			c19.205,16.591,43.505,25.667,69.06,25.667h208.115c23.156,0,41.995-18.839,41.995-41.994c0-12.803-5.758-24.285-14.822-31.994
			c9.064-7.709,14.822-19.191,14.822-31.995v-1.254c0-12.803-5.758-24.285-14.822-31.994c9.063-7.709,14.822-19.192,14.822-31.994
			v-0.218c0-12.803-5.758-24.285-14.822-31.994C506.242,261.596,512,250.113,512,237.309z M172.942,231.364c0,0.017,0,0.034,0,0.051
			v213.232c0,4.463-3.631,8.095-8.096,8.095h-36.439v-87.127c0-5.522-4.477-10-10-10s-10,4.478-10,10v87.127H20V214.279h144.846
			c4.464,0,8.096,3.632,8.096,8.096V231.364z M442.308,279.304h27.697c12.128,0,21.995,9.866,21.995,21.994v0.218
			c0,12.128-9.867,21.994-21.995,21.994h-27.697c-5.523,0-10,4.478-10,10c0,5.522,4.477,10,10,10h27.697
			c12.127,0,21.994,9.866,21.994,21.994v1.254c0,12.128-9.867,21.995-21.995,21.995h-27.697c-5.523,0-10,4.478-10,10
			c0,5.522,4.477,10,10,10h27.697c12.127,0,21.994,9.866,21.994,21.994s-9.867,21.994-21.995,21.994H261.891
			c-22.314,0-43.451-8.529-59.517-24.017l-9.432-9.093V237.455c12.968-7.225,25.285-15.558,36.681-24.83
			c32.2-26.196,57.502-59.895,75.203-100.159c5.036-11.454,9.012-24.227,12.158-39.049c0.715-3.368,2.229-6.28,4.5-8.652
			c4.922-5.141,11.357-5.508,13.088-5.508c0.177,0,0.293,0.004,0.422,0.004c10.653,0,19.32,8.682,19.321,19.354
			c0,4.248,0.03,8.179,0.059,11.896c0.042,5.558,0.083,10.808,0.004,15.767c-0.527,33.154-11.143,65.021-30.7,92.154
			c-2.195,3.046-2.5,7.063-0.789,10.404c1.71,3.342,5.148,5.443,8.901,5.443h138.215c12.127,0,21.994,9.866,21.994,21.994v1.036H492
			c0,12.128-9.867,21.995-21.995,21.995h-27.697c-5.523,0-10,4.478-10,10C432.308,274.826,436.785,279.304,442.308,279.304z"/>
	</g>
</g>
<g>
</g>
<g>
</g>
<g>
</g>
<g>
</g>
<g>
</g>
<g>
</g>
<g>
</g>
<g>
</g>
<g>
</g>
<g>
</g>
<g>
</g>
<g>
</g>
<g>
</g>
<g>
</g>
<g>
</g>
</svg>
