<?xml version="1.0" encoding="iso-8859-1"?>
<!-- Generator: Adobe Illustrator 19.0.0, SVG Export Plug-In . SVG Version: 6.00 Build 0)  -->
<svg version="1.1" id="Layer_1" xmlns="http://www.w3.org/2000/svg" xmlns:xlink="http://www.w3.org/1999/xlink" x="0px" y="0px"
	 viewBox="0 0 512 512" style="enable-background:new 0 0 512 512;" xml:space="preserve">
<g>
	<g>
		<g>
			<path d="M426.667,0h-320C83.135,0,64,19.135,64,42.667v42.667H53.333c-5.896,0-10.667,4.771-10.667,10.667
				s4.771,10.667,10.667,10.667H64V192H53.333c-5.896,0-10.667,4.771-10.667,10.667c0,5.896,4.771,10.667,10.667,10.667H64v85.333
				H53.333c-5.896,0-10.667,4.771-10.667,10.667c0,5.896,4.771,10.667,10.667,10.667H64v85.333H53.333
				c-5.896,0-10.667,4.771-10.667,10.667c0,5.896,4.771,10.667,10.667,10.667H64v42.667C64,492.865,83.135,512,106.667,512h320
				c23.531,0,42.667-19.135,42.667-42.667V42.667C469.333,19.135,450.198,0,426.667,0z M448,469.333
				c0,11.76-9.573,21.333-21.333,21.333h-320c-11.76,0-21.333-9.573-21.333-21.333v-42.667H96c5.896,0,10.667-4.771,10.667-10.667
				c0-5.896-4.771-10.667-10.667-10.667H85.333V320H96c5.896,0,10.667-4.771,10.667-10.667c0-5.896-4.771-10.667-10.667-10.667
				H85.333v-85.333H96c5.896,0,10.667-4.771,10.667-10.667c0-5.896-4.771-10.667-10.667-10.667H85.333v-85.333H96
				c5.896,0,10.667-4.771,10.667-10.667S101.896,85.333,96,85.333H85.333V42.667c0-11.76,9.573-21.333,21.333-21.333h320
				c11.76,0,21.333,9.573,21.333,21.333V469.333z"/>
			<path d="M266.667,256C296.073,256,320,232.073,320,202.667s-23.927-53.333-53.333-53.333s-53.333,23.927-53.333,53.333
				S237.26,256,266.667,256z M266.667,170.667c17.646,0,32,14.354,32,32c0,17.646-14.354,32-32,32c-17.646,0-32-14.354-32-32
				C234.667,185.021,249.021,170.667,266.667,170.667z"/>
			<path d="M339.625,288.677c-17.031-10.042-43.51-22.01-72.958-22.01c-29.448,0-55.927,11.969-72.958,22.01
				c-14.219,8.385-23.042,24.667-23.042,42.49V338c0,13.604,10.25,24.667,22.854,24.667h146.292
				c12.604,0,22.854-11.063,22.854-24.667v-6.833C362.667,313.344,353.844,297.063,339.625,288.677z M341.333,338
				c0,2.219-1.26,3.333-1.521,3.333H193.521c-0.26,0-1.521-1.115-1.521-3.333v-6.833c0-10.156,4.927-19.615,12.542-24.115
				c14.74-8.688,37.49-19.052,62.125-19.052c24.635,0,47.385,10.365,62.125,19.052c7.615,4.5,12.542,13.958,12.542,24.115V338z"/>
		</g>
	</g>
</g>
<g>
</g>
<g>
</g>
<g>
</g>
<g>
</g>
<g>
</g>
<g>
</g>
<g>
</g>
<g>
</g>
<g>
</g>
<g>
</g>
<g>
</g>
<g>
</g>
<g>
</g>
<g>
</g>
<g>
</g>
</svg>
