<svg height="512pt" viewBox="-34 0 512 512" width="512pt" xmlns="http://www.w3.org/2000/svg"><path d="m378.207031 64.890625c-41.84375-41.847656-97.480469-64.890625-156.65625-64.890625-59.179687 0-114.816406 23.046875-156.660156 64.890625s-64.890625 97.480469-64.890625 156.65625c0 59.179687 23.046875 114.816406 64.890625 156.660156l117.703125 117.707031c10.375 10.371094 24.207031 16.085938 38.953125 16.085938 14.742187 0 28.574219-5.714844 38.949219-16.085938l117.710937-117.707031c41.847657-41.84375 64.890625-97.480469 64.890625-156.660156 0-59.175781-23.046875-114.8125-64.890625-156.65625zm-21.210937 292.101563-117.714844 117.710937c-4.703125 4.703125-11.003906 7.296875-17.734375 7.296875s-13.03125-2.59375-17.738281-7.296875l-117.703125-117.710937c-36.179688-36.175782-56.105469-84.28125-56.105469-135.445313s19.925781-99.265625 56.105469-135.445313c36.179687-36.175781 84.277343-56.101562 135.445312-56.101562 51.164063 0 99.265625 19.925781 135.445313 56.101562 74.683594 74.6875 74.683594 196.210938 0 270.890626zm0 0"/><path d="m221.550781 142.28125c-43.710937 0-79.269531 35.558594-79.269531 79.269531 0 43.707031 35.558594 79.265625 79.269531 79.265625 43.707031 0 79.265625-35.558594 79.265625-79.265625 0-43.710937-35.558594-79.269531-79.265625-79.269531zm0 128.535156c-27.167969 0-49.269531-22.101562-49.269531-49.269531 0-27.164063 22.101562-49.265625 49.269531-49.265625 27.164063 0 49.265625 22.101562 49.265625 49.265625 0 27.167969-22.101562 49.269531-49.265625 49.269531zm0 0"/></svg>