<svg xmlns="http://www.w3.org/2000/svg" height="640pt" version="1.1" viewBox="0 0 640 640" width="640pt">
<g id="surface1">
<path d="M 320 0 C 143.273438 0 0 143.273438 0 320 C 0 496.726562 143.273438 640 320 640 C 496.726562 640 640 496.726562 640 320 C 639.800781 143.351562 496.648438 0.199219 320 0 Z M 320 618.667969 C 155.046875 618.667969 21.332031 484.953125 21.332031 320 C 21.332031 155.046875 155.046875 21.332031 320 21.332031 C 484.953125 21.332031 618.667969 155.046875 618.667969 320 C 618.476562 484.867188 484.867188 618.476562 320 618.667969 Z M 320 618.667969 " style=" stroke:none;fill-rule:nonzero;fill:rgb(0%,0%,0%);fill-opacity:1;" />
<path d="M 320 373.335938 C 349.453125 373.335938 373.335938 349.453125 373.335938 320 C 373.335938 290.546875 349.453125 266.664062 320 266.664062 C 290.546875 266.664062 266.664062 290.546875 266.664062 320 C 266.703125 349.4375 290.5625 373.296875 320 373.335938 Z M 320 288 C 337.671875 288 352 302.328125 352 320 C 352 337.671875 337.671875 352 320 352 C 302.328125 352 288 337.671875 288 320 C 288 302.328125 302.328125 288 320 288 Z M 320 288 " style=" stroke:none;fill-rule:nonzero;fill:rgb(0%,0%,0%);fill-opacity:1;" />
<path d="M 224 320 C 224 285.703125 242.300781 254.015625 272 236.867188 L 281.25 231.527344 L 201.246094 93.140625 L 192.03125 98.414062 C 112.75 143.992188 63.945312 228.546875 64.125 320 L 64.125 330.617188 L 224 330.667969 Z M 203.144531 309.332031 L 85.664062 309.332031 C 89.019531 233.167969 129.28125 163.417969 193.558594 122.421875 L 252.328125 224.140625 C 224.257812 243.96875 206.28125 275.109375 203.144531 309.332031 Z M 203.144531 309.332031 " style=" stroke:none;fill-rule:nonzero;fill:rgb(0%,0%,0%);fill-opacity:1;" />
<path d="M 368 403.132812 C 338.210938 419.964844 301.789062 419.964844 272 403.132812 L 262.765625 397.804688 L 182.890625 536.253906 L 192.066406 541.59375 C 271.1875 587.46875 368.820312 587.46875 447.933594 541.59375 L 457.109375 536.253906 L 377.234375 397.804688 Z M 320 554.667969 C 282.4375 554.691406 245.421875 545.644531 212.105469 528.285156 L 270.773438 426.527344 C 302.027344 440.710938 337.886719 440.710938 369.140625 426.527344 L 427.808594 528.285156 C 394.515625 545.628906 357.535156 554.679688 320 554.667969 Z M 320 554.667969 " style=" stroke:none;fill-rule:nonzero;fill:rgb(0%,0%,0%);fill-opacity:1;" />
<path d="M 541.703125 192 C 519.265625 153.066406 486.914062 120.773438 447.933594 98.40625 L 438.71875 93.140625 L 358.71875 231.527344 L 367.96875 236.867188 C 397.679688 254.003906 415.992188 285.699219 416 320 L 416 330.667969 L 575.828125 330.617188 L 575.828125 320 C 575.957031 275.070312 564.183594 230.902344 541.703125 192 Z M 436.855469 309.332031 C 433.71875 275.109375 415.742188 243.96875 387.671875 224.140625 L 446.445312 122.421875 C 510.71875 163.417969 550.980469 233.167969 554.335938 309.332031 Z M 436.855469 309.332031 " style=" stroke:none;fill-rule:nonzero;fill:rgb(0%,0%,0%);fill-opacity:1;" />
</g>
</svg>