<svg height="482pt" viewBox="0 -45 482 482" width="482pt" xmlns="http://www.w3.org/2000/svg"><path d="m442 0h-256.566406c-22.082032.0234375-39.976563 17.917969-40 40v25.699219h-105.433594c-22.082031.027343-39.9765625 17.917969-40 40v181c.0234375 22.082031 17.917969 39.976562 40 40h11.8125v55.101562c0 3.660157 2 7.027344 5.214844 8.777344s7.128906 1.605469 10.203125-.378906l98.433593-63.5h103.117188c22.082031-.023438 39.976562-17.917969 40-40v-31.675781h14.320312l92.847657 75.777343c2.992187 2.441407 7.121093 2.941407 10.609375 1.285157 3.488281-1.65625 5.710937-5.171876 5.710937-9.035157v-68.027343h9.730469c22.082031-.023438 39.976562-17.917969 40-40v-175.023438c-.023438-22.082031-17.917969-39.9765625-40-40zm-153.214844 286.699219c-.015625 11.042969-8.960937 19.988281-20 20h-106.066406c-1.921875 0-3.804688.558593-5.421875 1.601562l-85.484375 55.152344v-46.753906c0-5.523438-4.476562-10-10-10h-21.8125c-11.039062-.011719-19.988281-8.957031-20-20v-181c.011719-11.039063 8.960938-19.988281 20-20h105.433594v129.324219c.023437 22.082031 17.917968 39.976562 40 40h103.351562zm173.214844-71.675781c-.011719 11.039062-8.960938 19.988281-20 20h-19.730469c-5.519531 0-10 4.476562-10 10v56.960937l-79.289062-64.707031c-1.785157-1.457032-4.019531-2.253906-6.324219-2.253906h-141.222656c-11.042969-.011719-19.988282-8.960938-20-20v-175.023438c.011718-11.039062 8.957031-19.988281 20-20h256.566406c11.039062.011719 19.988281 8.960938 20 20zm0 0"/></svg>