<?xml version="1.0" encoding="iso-8859-1"?>
<!-- Generator: Adobe Illustrator 19.0.0, SVG Export Plug-In . SVG Version: 6.00 Build 0)  -->
<svg version="1.1" id="Capa_1" xmlns="http://www.w3.org/2000/svg" xmlns:xlink="http://www.w3.org/1999/xlink" x="0px" y="0px"
	 viewBox="0 0 368.003 368.003" style="enable-background:new 0 0 368.003 368.003;" xml:space="preserve">
<g>
	<g>
		<path d="M347.706,311.034c13.296-18.952,20.296-40.648,20.296-63.032c0-53.52-39.488-99.776-96.904-114.88
			c0.536-4.384,0.904-8.768,0.904-13.12c0-66.168-61.008-120-136-120s-136,53.832-136,120c0,22.384,7,44.08,20.296,63.032
			L0.65,228.85c-1.064,2.472-0.808,5.312,0.672,7.552s3.992,3.6,6.68,3.6H96.33c-0.208,2.72-0.328,5.392-0.328,8
			c0,66.168,61.008,120,136,120h128c2.688,0,5.2-1.352,6.68-3.6c1.48-2.248,1.736-5.08,0.672-7.552L347.706,311.034z
			 M108.906,197.194c-0.792,1.472-1.544,2.96-2.272,4.472c-0.824,1.72-1.592,3.472-2.328,5.232c-0.64,1.544-1.264,3.088-1.832,4.664
			c-0.656,1.808-1.24,3.632-1.8,5.472c-0.488,1.6-0.96,3.2-1.368,4.824c-0.184,0.72-0.44,1.416-0.608,2.136H20.13l16.664-38.84
			c1.136-2.648,0.76-5.704-0.984-8c-12.96-17.024-19.808-36.784-19.808-57.152c0-57.344,53.832-104,120-104s120,46.656,120,104
			c0,3.248-0.176,6.52-0.528,9.8c-1.688-0.256-3.368-0.376-5.056-0.576c-1.392-0.168-2.776-0.344-4.168-0.48
			c-4.76-0.448-9.52-0.744-14.248-0.744c-4.12,0-8.2,0.176-12.24,0.504c-1.352,0.112-2.664,0.328-4,0.472
			c-2.672,0.288-5.344,0.56-7.968,0.984c-1.584,0.256-3.128,0.624-4.696,0.928c-2.336,0.456-4.672,0.88-6.968,1.44
			c-1.632,0.4-3.224,0.904-4.832,1.352c-2.16,0.608-4.336,1.184-6.456,1.888c-1.632,0.536-3.216,1.168-4.816,1.768
			c-2.024,0.744-4.064,1.472-6.04,2.304c-1.6,0.672-3.144,1.432-4.712,2.152c-1.904,0.88-3.808,1.752-5.664,2.704
			c-1.544,0.8-3.032,1.672-4.544,2.52c-1.784,1.008-3.576,2.008-5.304,3.088c-1.472,0.92-2.888,1.896-4.312,2.864
			c-1.672,1.128-3.336,2.256-4.944,3.456c-1.384,1.032-2.72,2.112-4.056,3.192c-1.544,1.24-3.08,2.488-4.56,3.792
			c-1.288,1.136-2.52,2.312-3.76,3.488c-1.416,1.352-2.816,2.712-4.16,4.112c-1.184,1.232-2.312,2.504-3.44,3.776
			c-1.28,1.456-2.536,2.92-3.736,4.424c-1.056,1.32-2.072,2.664-3.072,4.024c-1.136,1.552-2.24,3.12-3.304,4.72
			c-0.928,1.4-1.816,2.816-2.68,4.248C110.746,193.842,109.81,195.506,108.906,197.194z M232.002,352.002
			c-66.168,0-120-46.656-120-104c0-4.68,0.4-9.64,1.184-14.744c4.696-28.624,22.912-53.288,48.52-69.392
			c0.328-0.208,0.68-0.376,1.016-0.584c8.272-5.088,17.264-9.328,26.832-12.496c1.488-0.488,3.032-0.864,4.536-1.304
			c1.864-0.544,3.704-1.144,5.608-1.608c2.904-0.712,5.88-1.28,8.864-1.8c0.544-0.096,1.072-0.24,1.624-0.328
			c2.2-0.352,4.456-0.56,6.688-0.808c4.976-0.552,10.008-0.936,15.128-0.936c9.448,0,19.048,1,28.544,2.96
			c53.848,11.36,91.456,52.912,91.456,101.04c0,20.368-6.848,40.128-19.808,57.16c-1.744,2.288-2.12,5.344-0.984,7.992
			l16.656,38.848H232.002z"/>
	</g>
</g>
<g>
</g>
<g>
</g>
<g>
</g>
<g>
</g>
<g>
</g>
<g>
</g>
<g>
</g>
<g>
</g>
<g>
</g>
<g>
</g>
<g>
</g>
<g>
</g>
<g>
</g>
<g>
</g>
<g>
</g>
</svg>
