<svg height="480pt" viewBox="0 0 480 480" width="480pt" xmlns="http://www.w3.org/2000/svg"><path d="m480 208h-.128906c.167968-2.875-1.410156-5.570312-4-6.832031l.066406-.113281-51.9375-29.695313v-163.359375c0-4.417969-3.582031-8-8-8h-352c-4.417969 0-8 3.582031-8 8v163.359375l-52 29.695313.0625.113281c-1.257812.660156-2.3125 1.652343-3.046875 2.871093-.664063 1.226563-.9804688 2.609376-.9179688 4h-.0976562v263.960938c0 .160156.078125.289062.0898438.449219.0468752.542969.1562502 1.078125.3164062 1.597656.113281.519531.277344 1.023437.496094 1.503906.074218.144531.066406.296875.144531.441407.347656.582031.769531 1.121093 1.25 1.601562l.054687.070312c.65625.628907 1.417969 1.140626 2.25 1.511719.214844.105469.421876.183594.644532.273438.878906.339843 1.8125.527343 2.753906.550781h464.070312c.910157-.027344 1.808594-.207031 2.65625-.535156.234376-.082032.464844-.175782.6875-.28125.820313-.371094 1.574219-.875 2.226563-1.496094l.078125-.113281c.480469-.476563.894531-1.011719 1.234375-1.597657.078125-.136718.070313-.289062.144531-.425781.21875-.488281.386719-1 .503906-1.527343.152344-.503907.257813-1.023438.308594-1.550782 0-.160156.089844-.289062.089844-.449218zm-464 13.753906 207.832031 118.246094-207.832031 118.246094zm224 127.445313 201.777344 114.800781h-403.546875zm16.175781-9.199219 207.824219-118.246094v236.484375zm199.671875-132-31.847656 18.105469v-36.320313zm-47.847656-192v219.199219l-168 95.59375-168-95.59375v-219.199219zm-352 210.105469-31.847656-18.105469 31.847656-18.214844zm0 0"/><path d="m128 48h224v16h-224zm0 0"/><path d="m128 88h224v16h-224zm0 0"/><path d="m128 128h224v16h-224zm0 0"/><path d="m128 168h224v16h-224zm0 0"/><path d="m288 208h64v16h-64zm0 0"/></svg>