<?xml version="1.0" encoding="iso-8859-1"?>
<!-- Generator: Adobe Illustrator 19.0.0, SVG Export Plug-In . SVG Version: 6.00 Build 0)  -->
<svg version="1.1" id="Capa_1" xmlns="http://www.w3.org/2000/svg" xmlns:xlink="http://www.w3.org/1999/xlink" x="0px" y="0px"
	 viewBox="0 0 368 368" style="enable-background:new 0 0 368 368;" xml:space="preserve">
<g>
	<g>
		<path d="M364.296,113.248l-176-112c-2.624-1.664-5.968-1.664-8.592,0l-176,112c-0.256,0.16-0.4,0.416-0.632,0.6
			c-0.408,0.328-0.768,0.656-1.104,1.056c-0.344,0.408-0.616,0.832-0.872,1.288c-0.232,0.416-0.432,0.832-0.584,1.288
			c-0.184,0.544-0.272,1.088-0.336,1.656C0.136,119.44,0,119.696,0,120v224v8c0,7.72,5.496,14.184,12.776,15.672
			C13.816,367.888,14.896,368,16,368h336c4.2,0,8-1.664,10.856-4.32c0.144-0.136,0.312-0.232,0.456-0.376
			c0.144-0.144,0.24-0.312,0.376-0.456C366.336,360,368,356.2,368,352v-8V128v-8C368,117.264,366.6,114.72,364.296,113.248z
			 M184,17.488l167.664,106.688L184,246.112L16.336,124.176L184,17.488z M16,143.712l126.888,92.28L16,328.288V143.712z M352,352H16
			v-3.92l140.488-102.184l22.816,16.584c2.808,2.04,6.6,2.04,9.408,0l22.816-16.584L352,348.072V352z M352,328.288l-126.888-92.296
			L352,143.712V328.288z"/>
	</g>
</g>
<g>
</g>
<g>
</g>
<g>
</g>
<g>
</g>
<g>
</g>
<g>
</g>
<g>
</g>
<g>
</g>
<g>
</g>
<g>
</g>
<g>
</g>
<g>
</g>
<g>
</g>
<g>
</g>
<g>
</g>
</svg>
