<?xml version="1.0" encoding="iso-8859-1"?>
<!-- Generator: Adobe Illustrator 19.0.0, SVG Export Plug-In . SVG Version: 6.00 Build 0)  -->
<svg version="1.1" id="Layer_1" xmlns="http://www.w3.org/2000/svg" xmlns:xlink="http://www.w3.org/1999/xlink" x="0px" y="0px"
	 viewBox="0 0 512 512" style="enable-background:new 0 0 512 512;" xml:space="preserve">
<g>
	<g>
		<path d="M358.4,0H153.6c-42.351,0-76.8,34.449-76.8,76.8v358.4c0,42.351,34.449,76.8,76.8,76.8h204.8
			c42.351,0,76.8-34.449,76.8-76.8V76.8C435.2,34.449,400.751,0,358.4,0z M409.6,435.2c0,28.279-22.921,51.2-51.2,51.2H153.6
			c-28.279,0-51.2-22.921-51.2-51.2v-25.6h307.2V435.2z M409.6,384H102.4V102.4h307.2V384z M102.4,76.8
			c0-28.279,22.921-51.2,51.2-51.2h204.8c28.279,0,51.2,22.921,51.2,51.2H102.4z"/>
	</g>
</g>
<g>
	<g>
		<path d="M294.4,435.2h-76.8c-7.074,0-12.8,5.726-12.8,12.8c0,7.074,5.726,12.8,12.8,12.8h76.8c7.074,0,12.8-5.726,12.8-12.8
			C307.2,440.926,301.474,435.2,294.4,435.2z"/>
	</g>
</g>
<g>
</g>
<g>
</g>
<g>
</g>
<g>
</g>
<g>
</g>
<g>
</g>
<g>
</g>
<g>
</g>
<g>
</g>
<g>
</g>
<g>
</g>
<g>
</g>
<g>
</g>
<g>
</g>
<g>
</g>
</svg>
