<?xml version="1.0" encoding="iso-8859-1"?>
<!-- Generator: Adobe Illustrator 19.0.0, SVG Export Plug-In . SVG Version: 6.00 Build 0)  -->
<svg version="1.1" id="Layer_1" xmlns="http://www.w3.org/2000/svg" xmlns:xlink="http://www.w3.org/1999/xlink" x="0px" y="0px"
	 viewBox="0 0 512 512" style="enable-background:new 0 0 512 512;" xml:space="preserve">
<g>
	<g>
		<path d="M406.033,62.148C364.604,20.719,310.306,0,256,0c-54.298,0-108.604,20.719-150.033,62.148
			c-82.859,82.859-82.859,217.208,0,300.066C106.803,363.051,256,512,256,512s149.197-148.949,150.033-149.786
			C488.892,279.356,488.892,145.007,406.033,62.148z M387.917,344.09c-0.845,0.845-92.194,92.041-131.917,131.703
			c-39.723-39.654-131.072-130.85-131.917-131.695c-72.738-72.738-72.738-191.087,0-263.825
			C159.326,45.03,206.174,25.626,256,25.626c49.835,0,96.683,19.405,131.917,54.639C460.655,153.003,460.655,271.36,387.917,344.09z
			"/>
	</g>
</g>
<g>
	<g>
		<path d="M256,109.679c-56.61,0-102.502,45.892-102.502,102.502c0,56.61,45.892,102.502,102.502,102.502
			c56.61,0,102.502-45.892,102.502-102.502S312.61,109.679,256,109.679z M256,289.058c-42.385,0-76.877-34.483-76.877-76.877
			c0-42.394,34.492-76.877,76.877-76.877c42.394,0,76.877,34.483,76.877,76.877C332.877,254.575,298.394,289.058,256,289.058z"/>
	</g>
</g>
<g>
</g>
<g>
</g>
<g>
</g>
<g>
</g>
<g>
</g>
<g>
</g>
<g>
</g>
<g>
</g>
<g>
</g>
<g>
</g>
<g>
</g>
<g>
</g>
<g>
</g>
<g>
</g>
<g>
</g>
</svg>
