<svg height="335pt" viewBox="0 -66 335.628 335" width="335pt" xmlns="http://www.w3.org/2000/svg"><path d="m328.628906 188.3125h-321.628906c-3.867188 0-7 3.136719-7 7 0 3.867188 3.132812 7 7 7h321.628906c3.863282 0 7-3.132812 7-7 0-3.863281-3.136718-7-7-7zm0 0"/><path d="m328.628906 94.3125h-321.628906c-3.867188 0-7 3.136719-7 7 0 3.867188 3.132812 7 7 7h321.628906c3.863282 0 7-3.132812 7-7 0-3.863281-3.136718-7-7-7zm0 0"/><path d="m328.628906.3125h-321.628906c-3.867188 0-7 3.136719-7 7 0 3.867188 3.132812 7 7 7h321.628906c3.863282 0 7-3.132812 7-7 0-3.863281-3.136718-7-7-7zm0 0"/></svg>