<?xml version="1.0" encoding="iso-8859-1"?>
<!-- Generator: Adobe Illustrator 19.0.0, SVG Export Plug-In . SVG Version: 6.00 Build 0)  -->
<svg version="1.1" id="Capa_1" xmlns="http://www.w3.org/2000/svg" xmlns:xlink="http://www.w3.org/1999/xlink" x="0px" y="0px"
	 viewBox="0 0 512 512" style="enable-background:new 0 0 512 512;" xml:space="preserve">
<g>
	<g>
		<path d="M483.556,119.467H382.077l-21.959-57.31c-2.537-6.599-8.875-10.957-15.94-10.957H167.822
			c-7.071,0-13.403,4.358-15.935,10.957l-21.97,57.31H28.444C12.76,119.467,0,132.227,0,147.911v284.444
			C0,448.04,12.76,460.8,28.444,460.8h455.111c15.684,0,28.444-12.76,28.444-28.444V147.911
			C512,132.227,499.24,119.467,483.556,119.467z M477.867,426.667H34.133V153.6h107.52c7.071,0,13.403-4.358,15.935-10.957
			l21.971-57.31h152.889l21.965,57.31c2.532,6.599,8.869,10.957,15.935,10.957h107.52V426.667z"/>
	</g>
</g>
<g>
	<g>
		<path d="M256,156.439c-66.19,0-120.036,53.851-120.036,120.036c0,66.19,53.845,120.041,120.036,120.041
			s120.036-53.851,120.036-120.041S322.19,156.439,256,156.439z M256,362.382c-47.366,0-85.902-38.531-85.902-85.902
			c0-47.371,38.537-85.902,85.902-85.902c47.366,0,85.902,38.537,85.902,85.902C341.902,323.846,303.366,362.382,256,362.382z"/>
	</g>
</g>
<g>
</g>
<g>
</g>
<g>
</g>
<g>
</g>
<g>
</g>
<g>
</g>
<g>
</g>
<g>
</g>
<g>
</g>
<g>
</g>
<g>
</g>
<g>
</g>
<g>
</g>
<g>
</g>
<g>
</g>
</svg>
