<svg height="445pt" viewBox="0 -32 445.455 445" width="445pt" xmlns="http://www.w3.org/2000/svg"><path d="m395.453125 53.863281h-72.347656l-11.070313-24.335937c-8.136718-17.824219-25.914062-29.269532-45.507812-29.300782h-92.898438c-19.597656.027344-37.378906 11.476563-45.515625 29.300782l-11.066406 24.335937h-67.046875c-27.601562.03125-49.96875 22.398438-50 50v226.363281c.03125 27.601563 22.398438 49.96875 50 50h345.453125c27.601563-.03125 49.96875-22.398437 50-50v-226.363281c-.03125-27.601562-22.398437-49.96875-50-50zm30 276.363281c-.019531 16.5625-13.4375 29.980469-30 30h-345.453125c-16.5625-.019531-29.980469-13.4375-30-30v-226.363281c.019531-16.5625 13.4375-29.980469 30-30h73.484375c3.921875 0 7.476563-2.292969 9.101563-5.859375l13.730468-30.199218c4.886719-10.695313 15.554688-17.5625 27.3125-17.578126h92.898438c11.753906.019532 22.417968 6.886719 27.300781 17.582032l13.730469 30.199218c1.625 3.566407 5.183594 5.859376 9.101562 5.859376h78.789063c16.558593.019531 29.980469 13.441406 30 30zm0 0"/><path d="m220.074219 87.726562c-67.324219 0-121.898438 54.578126-121.898438 121.902344 0 67.320313 54.574219 121.898438 121.898438 121.898438s121.902343-54.578125 121.902343-121.898438c-.078124-67.292968-54.609374-121.824218-121.902343-121.902344zm0 223.800782c-56.277344 0-101.898438-45.621094-101.898438-101.898438s45.621094-101.902344 101.898438-101.902344c56.277343 0 101.902343 45.625 101.902343 101.902344-.066406 56.25-45.648437 101.835938-101.902343 101.898438zm0 0"/><path d="m220.074219 155.6875c-29.789063 0-53.9375 24.148438-53.9375 53.9375 0 29.792969 24.148437 53.941406 53.9375 53.941406 29.792969 0 53.941406-24.148437 53.941406-53.941406-.035156-29.773438-24.164063-53.90625-53.941406-53.9375zm0 87.878906c-18.742188 0-33.9375-15.195312-33.9375-33.9375 0-18.746094 15.195312-33.941406 33.9375-33.941406 18.746093 0 33.941406 15.195312 33.941406 33.941406-.023437 18.734375-15.203125 33.917969-33.941406 33.9375zm0 0"/></svg>