<?xml version="1.0" encoding="iso-8859-1"?>
<!-- Generator: Adobe Illustrator 19.0.0, SVG Export Plug-In . SVG Version: 6.00 Build 0)  -->
<svg version="1.1" id="Layer_1" xmlns="http://www.w3.org/2000/svg" xmlns:xlink="http://www.w3.org/1999/xlink" x="0px" y="0px"
	 viewBox="0 0 512 512" style="enable-background:new 0 0 512 512;" xml:space="preserve">
<g>
	<g>
		<path d="M493.43,0.028C268.048-2.289,70.388,147.867,0.993,353.374c-3.821,11.313,3.801,23.297,15.688,24.611l105.654,11.682
			l11.682,105.654c1.324,11.969,13.377,19.482,24.611,15.688c205.52-69.395,355.573-266.962,353.348-492.434
			C511.876,8.373,503.63,0.129,493.43,0.028z M168.633,467.496l-10.709-96.856c-0.964-8.715-7.845-15.596-16.56-16.56L44.508,343.37
			c15.171-38.655,35.159-74.848,59.764-108.272h167.6v18.271c0,10.345,8.387,18.731,18.731,18.731H402.69
			C350.289,356.125,269.108,428.062,168.633,467.496z M423.764,234.638H309.336v-18.271c0-10.345-8.387-18.731-18.731-18.731
			H134.837C225.506,97.001,348.718,41.512,474.323,37.682C472.249,105.695,455.142,172.49,423.764,234.638z"/>
	</g>
</g>
<g>
</g>
<g>
</g>
<g>
</g>
<g>
</g>
<g>
</g>
<g>
</g>
<g>
</g>
<g>
</g>
<g>
</g>
<g>
</g>
<g>
</g>
<g>
</g>
<g>
</g>
<g>
</g>
<g>
</g>
</svg>
