<?xml version="1.0" encoding="iso-8859-1"?>
<!-- Generator: Adobe Illustrator 19.0.0, SVG Export Plug-In . SVG Version: 6.00 Build 0)  -->
<svg version="1.1" id="Layer_1" xmlns="http://www.w3.org/2000/svg" xmlns:xlink="http://www.w3.org/1999/xlink" x="0px" y="0px"
	 viewBox="0 0 512 512" style="enable-background:new 0 0 512 512;" xml:space="preserve">
<g>
	<g>
		<path d="M511.976,18.575c-0.1-10.201-8.345-18.445-18.545-18.547C335.492-1.596,185.034,72.327,85.91,197.636h204.694
			c10.345,0,18.731,8.387,18.731,18.731v18.271h156.036C496.947,165.992,512.71,92.935,511.976,18.575z"/>
	</g>
</g>
<g>
	<g>
		<path d="M290.604,272.098v0.001c-10.345,0-18.731-8.387-18.731-18.731v-18.271H58.86c-24.3,36.95-43.859,76.796-57.866,118.276
			c-3.821,11.313,3.801,23.297,15.688,24.611l105.654,11.682l11.682,105.654c1.324,11.969,13.377,19.482,24.611,15.688
			c118.124-39.887,223.351-124.745,287.628-238.91H290.604z"/>
	</g>
</g>
<g>
</g>
<g>
</g>
<g>
</g>
<g>
</g>
<g>
</g>
<g>
</g>
<g>
</g>
<g>
</g>
<g>
</g>
<g>
</g>
<g>
</g>
<g>
</g>
<g>
</g>
<g>
</g>
<g>
</g>
</svg>
