<svg height="448pt" viewBox="0 -96 448 448" width="448pt" xmlns="http://www.w3.org/2000/svg"><path d="m288.542969 138.988281c38.605469-12.011719 70.421875-39.628906 87.738281-76.160156l3.535156-7.578125 4.441406-9.519531-303.84375 112.976562 11.867188 38.96875c.925781-.046875 1.789062-.136719 2.773438-.136719.503906 0 .9375.054688 1.433593.0625l37.175781-11.335937 61.007813-18.605469zm-185.296875 39.792969-4.671875-15.3125 15.304687-4.664062 4.671875 15.3125zm0 0"/><path d="m253.078125.339844-5.390625 16.054687 20.535156 4.402344-3.359375 15.636719-22.304687-4.796875-19.0625 56.757812 154.015625-57.253906c-37.453125-22.507813-80.804688-33.238281-124.433594-30.800781zm0 0"/><path d="m425.519531 221.285156c-12.179687-10.359375-30.074219-10.359375-42.253906 0-17.765625 14.386719-43.171875 14.386719-60.9375 0-12.15625-10.359375-30.035156-10.359375-42.191406 0-17.75 14.386719-43.148438 14.386719-60.898438 0-12.160156-10.359375-30.039062-10.359375-42.199219 0-17.742187 14.386719-43.136718 14.386719-60.878906 0-12.15625-10.359375-30.035156-10.359375-42.191406 0-8.554688 7.085938-19.347656 10.910156-30.457031 10.789063-11.089844.113281-21.863281-3.710938-30.398438-10.789063-3.847656-3.1875-8.3125-5.539062-13.113281-6.90625v23.71875c8.230469 1.417969 15.960938 4.933594 22.441406 10.203125 5.808594 5.125 13.324219 7.894531 21.070313 7.773438 7.757812.121093 15.28125-2.648438 21.105469-7.773438 17.75-14.378906 43.136718-14.378906 60.886718 0 12.152344 10.367188 30.039063 10.367188 42.191406 0 17.75-14.378906 43.140626-14.378906 60.890626 0 12.152343 10.367188 30.035156 10.367188 42.191406 0 17.75-14.378906 43.140625-14.378906 60.894531 0 12.175781 10.363281 30.074219 10.363281 42.25 0 17.769531-14.382812 43.171875-14.382812 60.941406 0 3.855469 3.183594 8.328125 5.539063 13.136719 6.910157v-23.71875c-8.25-1.410157-15.992188-4.925782-22.480469-10.207032zm0 0"/><path d="m215.878906 60.820312-63.246094 19.261719-14.496093 40.042969 66.0625-24.554688zm0 0"/><path d="m118.816406 126.46875 15.65625-43.21875-74.128906 9.761719 5.335938 17.429687zm0 0"/><path d="m247.6875 16.394531-60-12.855469-3.359375 15.640626 58.230469 12.472656zm0 0"/></svg>