<?xml version="1.0" encoding="iso-8859-1"?>
<!-- Generator: Adobe Illustrator 19.0.0, SVG Export Plug-In . SVG Version: 6.00 Build 0)  -->
<svg version="1.1" id="Layer_1" xmlns="http://www.w3.org/2000/svg" xmlns:xlink="http://www.w3.org/1999/xlink" x="0px" y="0px"
	 viewBox="0 0 512 512" style="enable-background:new 0 0 512 512;" xml:space="preserve">
<g>
	<g>
		<path d="M60.205,0C27.156,0,0.268,26.888,0.268,59.936c0,33.049,26.887,59.936,59.936,59.936s59.936-26.888,59.936-59.936
			C120.141,26.888,93.254,0,60.205,0z M60.205,89.905c-16.524,0-29.968-13.444-29.968-29.968c0-16.524,13.444-29.968,29.968-29.968
			c16.524,0,29.968,13.444,29.968,29.968C90.173,76.461,76.729,89.905,60.205,89.905z"/>
	</g>
</g>
<g>
	<g>
		<path d="M490.266,458.69c-5.934,2.845-11.645,6.394-16.974,10.55c-21.709,16.933-49.763,16.933-71.473,0
			c-32.697-25.504-76.638-25.504-109.335,0c-21.674,16.906-50.798,16.906-72.471,0c-16.014-12.491-34.745-19.094-54.169-19.094
			s-38.155,6.602-54.169,19.094c-19.431,15.156-43.943,16.735-64.443,4.759l293.155-72.834
			c29.743-7.436,54.667-27.428,68.375-54.849l11.476-22.952c3.701-7.402,0.701-16.403-6.701-20.104
			c-7.401-3.701-16.402-0.7-20.103,6.701l-11.477,22.953c-9.793,19.586-27.594,33.866-48.818,39.172l-140.318,34.861
			c0.767-7.349-0.254-14.97-3.331-22.195l-17.185-66.928c-2.065-8.039-6.307-15.34-12.269-21.112l-48.56-47.022l-9.192-39.914
			h92.778c19.533,0,36.189-12.529,42.374-29.968h259.305c8.275,0,14.984-6.709,14.984-14.984s-6.709-14.984-14.984-14.984H237.436
			c-6.185-17.44-22.841-29.968-42.375-29.968H60.204H45.813c-28.383,0-49.634,25.992-44.088,53.715l20.978,106.889
			c1.796,8.985,6.226,17.105,12.809,23.478l59.065,57.193l11.715,56.895c0.621,3.018,2.845,6.869,4.459,9.296l-99.112,24.624
			c-7.661,1.903-12.451,9.387-11.146,17.044c-1.113,6.553,2.245,13.283,8.584,16.151c4.426,2.002,8.698,4.598,12.693,7.714
			c16.014,12.491,34.745,19.094,54.169,19.094c19.422,0,38.154-6.602,54.169-19.094c21.708-16.933,49.763-16.934,71.473,0
			c32.74,25.537,76.678,25.472,109.335,0c21.674-16.906,50.798-16.906,72.472,0c32.597,25.426,75.615,25.523,108.335,0.001
			c3.633-2.833,7.502-5.241,11.499-7.158c7.462-3.577,10.612-12.527,7.034-19.989C506.677,458.263,497.731,455.111,490.266,458.69z
			 M56.359,282.425c-2.195-2.124-3.67-4.83-4.258-7.772L31.123,167.763c-1.858-9.28,5.244-17.922,14.69-17.922h149.249
			c8.262,0,14.984,6.722,14.984,14.984c0,8.262-6.722,14.984-14.984,14.984H83.456c-9.626,0-16.762,8.966-14.602,18.348
			l14.414,62.58c0.649,2.819,2.101,5.389,4.179,7.401l51.744,50.106c1.987,1.924,3.401,4.357,4.09,7.037
			c18.883,73.545,17.588,68.943,18.428,70.744c3.492,7.489,0.241,16.422-7.248,19.914c-7.172,3.345-15.431,0.5-19.231-5.953
			l-12.232-59.407c-0.607-2.95-2.09-5.648-4.253-7.743L56.359,282.425z"/>
	</g>
</g>
<g>
</g>
<g>
</g>
<g>
</g>
<g>
</g>
<g>
</g>
<g>
</g>
<g>
</g>
<g>
</g>
<g>
</g>
<g>
</g>
<g>
</g>
<g>
</g>
<g>
</g>
<g>
</g>
<g>
</g>
</svg>
