<?xml version="1.0" encoding="iso-8859-1"?>
<!-- Generator: Adobe Illustrator 19.0.0, SVG Export Plug-In . SVG Version: 6.00 Build 0)  -->
<svg version="1.1" id="Layer_1" xmlns="http://www.w3.org/2000/svg" xmlns:xlink="http://www.w3.org/1999/xlink" x="0px" y="0px"
	 viewBox="0 0 511.999 511.999" style="enable-background:new 0 0 511.999 511.999;" xml:space="preserve">
<circle cx="166.194" cy="74.995" r="6.897"/>
<circle cx="210.936" cy="74.995" r="6.897"/>
<path d="M207.855,91.08c-3.321-2.858-8.328-2.484-11.185,0.835c-0.808,0.938-3.722,2.426-8.105,2.426
	c-4.383,0-7.298-1.488-8.105-2.426c-2.857-3.319-7.866-3.696-11.185-0.838c-3.319,2.857-3.695,7.866-0.838,11.185
	c4.28,4.972,11.804,7.941,20.127,7.941c8.322,0,15.845-2.967,20.125-7.939C211.549,98.946,211.174,93.939,207.855,91.08z"/>
<path d="M7.939,467.062c1.344,0,2.706-0.343,3.954-1.061L36.7,451.703c13.053-7.524,28.639-7.525,41.692,0
	c3.792,2.187,8.643,0.885,10.832-2.911c2.187-3.794,0.884-8.644-2.911-10.832c-18.013-10.382-39.522-10.381-57.535,0L3.971,452.257
	c-3.794,2.188-5.098,7.038-2.91,10.833C2.529,465.638,5.196,467.062,7.939,467.062z"/>
<path d="M508.027,452.257l-24.807-14.298c-18.012-10.381-39.521-10.382-57.535,0c-13.053,7.523-28.639,7.524-41.692,0
	c-18.011-10.382-39.521-10.382-57.535,0c-13.054,7.523-28.64,7.524-41.692,0c-18.013-10.382-39.522-10.381-57.535,0
	c-13.053,7.524-28.639,7.525-41.691,0c-18.013-10.382-39.522-10.382-57.535,0c-3.795,2.188-5.098,7.038-2.911,10.832
	c2.188,3.795,7.037,5.097,10.832,2.911c13.053-7.524,28.639-7.525,41.692,0c18.012,10.382,39.521,10.383,57.535,0
	c13.053-7.524,28.639-7.524,41.691,0c18.013,10.382,39.522,10.382,57.535,0c13.055-7.524,28.64-7.524,41.692,0
	c18.013,10.382,39.522,10.382,57.535,0c13.054-7.524,28.639-7.524,41.692,0l24.807,14.298c1.248,0.719,2.61,1.061,3.954,1.061
	c2.742,0,5.41-1.425,6.879-3.972C513.126,459.295,511.822,454.445,508.027,452.257z"/>
<path d="M326.459,480.343c-13.054,7.525-28.64,7.524-41.692,0c-18.012-10.382-39.521-10.381-57.535,0
	c-13.053,7.524-28.639,7.524-41.691,0c-18.011-10.382-39.521-10.382-57.535,0c-13.054,7.525-28.64,7.524-41.692,0
	c-18.013-10.382-39.522-10.381-57.535,0L3.971,494.641c-3.794,2.188-5.098,7.038-2.91,10.833c1.469,2.547,4.136,3.972,6.879,3.972
	c1.344,0,2.706-0.343,3.954-1.062l24.807-14.298c13.053-7.524,28.639-7.525,41.692,0c18.012,10.382,39.521,10.383,57.535,0
	c13.054-7.524,28.64-7.524,41.692,0c18.013,10.383,39.522,10.381,57.535,0c13.053-7.524,28.639-7.524,41.691,0
	c18.012,10.382,39.522,10.383,57.535,0c3.795-2.188,5.098-7.038,2.911-10.832C335.104,479.459,330.255,478.156,326.459,480.343z"/>
<path d="M508.027,494.641l-24.807-14.298c-18.012-10.381-39.521-10.382-57.535,0c-13.054,7.525-28.64,7.524-41.692,0
	c-3.793-2.187-8.644-0.884-10.832,2.911c-2.187,3.794-0.884,8.644,2.911,10.832c18.012,10.382,39.522,10.383,57.535,0
	c13.054-7.524,28.64-7.524,41.691,0l24.807,14.298c1.248,0.719,2.61,1.061,3.954,1.061c2.742,0,5.41-1.425,6.879-3.972
	C513.126,501.679,511.822,496.829,508.027,494.641z"/>
<path d="M7.939,424.678c1.344,0,2.706-0.343,3.954-1.061L36.7,409.319c13.054-7.524,28.64-7.524,41.692,0
	c18.013,10.383,39.522,10.385,57.535,0c6.369-3.672,13.577-5.611,20.846-5.611s14.477,1.939,20.845,5.611
	c0.549,0.316,1.102,0.623,1.66,0.921c17.664,9.452,38.412,9.146,55.875-0.921c6.368-3.672,13.576-5.611,20.845-5.611
	s14.477,1.939,20.845,5.611c0.549,0.316,1.102,0.623,1.66,0.921c17.664,9.452,38.412,9.146,55.875-0.921
	c6.369-3.672,13.577-5.611,20.846-5.611c7.269,0,14.477,1.939,20.845,5.611c0.549,0.316,1.102,0.623,1.659,0.92
	c17.663,9.452,38.412,9.146,55.875-0.92c6.725-3.876,14.426-5.807,22.155-5.564c0.205,0.006,0.409-0.005,0.613-0.016
	c6.514,0.307,12.982,2.155,18.924,5.58l24.808,14.298c3.793,2.187,8.644,0.883,10.832-2.91c2.187-3.795,0.884-8.645-2.911-10.833
	l-24.807-14.298c-4.004-2.307-8.18-4.099-12.452-5.38c25.935-34.898,31.714-70.502,31.97-72.151c0.326-2.103-0.207-4.25-1.479-5.956
	c-1.272-1.707-3.177-2.83-5.286-3.117c-9.676-1.32-20.558-1.988-32.341-1.988c-58.967,0-137.158,16.585-209.582,36.416v-19.142
	V238.88v-71.096c3.845,0.482,7.329,1.611,10.399,3.373c14.327,8.225,20.781,31.028,23.352,43.889
	c2.957,14.779,16.029,25.507,31.085,25.507l0,0c2.084,0,4.186-0.208,6.244-0.62c8.31-1.662,15.474-6.46,20.176-13.51
	c4.701-7.05,6.373-15.51,4.712-23.819c-8.317-41.588-26.477-70.68-53.977-86.471c-14.001-8.038-29.565-12.115-46.262-12.115
	c-0.234,0-1.2,0.001-2.618,0.003c2.347-6.547,3.634-13.593,3.634-20.937V41.959c6.632-8.761,10.575-19.665,10.575-31.475
	c0-4.38-3.55-7.931-7.931-7.931H178.59c-28.814,0-52.257,23.442-52.257,52.258v28.275c0,9.195,2.021,17.921,5.615,25.784
	c-9.781-0.68-17.193-1.94-19.27-3.132c-14.327-8.226-20.781-31.029-23.352-43.889c-2.956-14.78-16.029-25.508-31.085-25.508
	c-2.085,0-4.186,0.208-6.246,0.62c-8.31,1.662-15.474,6.46-20.175,13.51s-6.373,15.51-4.712,23.819
	c8.317,41.589,26.478,70.681,53.977,86.471c12.8,7.348,26.908,11.386,41.993,12.025v66.095v85.377v59.596
	c-13.406,4.566-25.375,8.768-35.517,12.394c-0.418-0.222-0.84-0.43-1.252-0.668c-18.012-10.382-39.521-10.381-57.535,0
	L3.971,409.874c-3.794,2.188-5.098,7.038-2.91,10.833C2.529,423.254,5.196,424.678,7.939,424.678z M485.258,323.733
	c-3.389,13.031-12.301,39.632-32.825,64.094c-9.202,0.33-18.354,2.911-26.746,7.748c-0.424,0.244-0.859,0.459-1.288,0.687
	c-6.047,3.213-12.771,4.924-19.558,4.924c-7.269,0-14.477-1.94-20.846-5.612c-18.013-10.383-39.522-10.381-57.535,0
	c-0.424,0.244-0.859,0.459-1.288,0.687c-6.047,3.213-12.771,4.924-19.558,4.924c-7.269,0-14.477-1.94-20.846-5.612
	c-18.012-10.382-39.521-10.382-57.535,0c-6.368,3.671-13.577,5.611-20.845,5.611c-7.268,0-14.477-1.94-20.845-5.612
	c-0.006-0.003-0.012-0.006-0.018-0.01c-0.896-0.516-1.802-0.999-2.714-1.464c-0.082-0.041-0.163-0.085-0.245-0.126
	c-6.88-3.464-14.196-5.472-21.582-6.024c6.405-2.084,12.788-4.141,19.102-6.139c0.024-0.007,0.047-0.021,0.071-0.029
	c6.989-2.212,14.156-4.444,21.471-6.681c0.043-0.013,0.088-0.016,0.132-0.03c15.843-4.841,31.488-9.427,46.5-13.631
	c0.061-0.017,0.116-0.048,0.178-0.066c73.96-20.71,155.078-38.535,215.197-38.535C471.31,322.843,478.549,323.141,485.258,323.733z
	 M138.943,246.808h99.244v69.515h-30.817v-16.881c0-10.37-8.437-18.805-18.805-18.805s-18.805,8.437-18.805,18.805v16.881h-30.816
	V246.808z M207.371,332.185h30.817V347.8c-10.064,2.853-20.377,5.864-30.817,8.999V332.185z M185.622,363.458v-39.204v-24.812
	c0-1.623,1.321-2.943,2.943-2.943c1.623,0,2.943,1.321,2.943,2.943v24.812v37.381C189.534,362.244,187.572,362.851,185.622,363.458z
	 M204.358,126.624c-5.04,1.874-10.417,2.827-15.793,2.827c-22.774,0-42.714-17.3-45.909-39.83
	c-1.296-9.146,0.204-18.587,4.261-26.881h62.196c5.173,0,10.345-0.789,15.292-2.301c1.294-0.396,2.584-0.835,3.844-1.331
	c0.053,0.087,0.105,0.173,0.157,0.26c4.264,7.112,6.528,15.427,6.528,23.716C234.933,102.475,222.143,120.009,204.358,126.624z
	 M178.592,18.412h66.046c-2.237,10.027-8.897,18.88-17.862,23.879c0.008-0.007,0.021-0.012,0.032-0.018
	c-5.371,2.977-11.55,4.602-17.694,4.602h-66.045C146.697,30.608,161.246,18.412,178.592,18.412z M88.986,147
	c-23.356-13.41-38.941-38.921-46.321-75.824C40.95,62.6,46.531,54.227,55.106,52.512c8.461-1.689,16.971,3.966,18.667,12.443
	c6.859,34.296,20.648,48.585,31.01,54.535c8.018,4.602,28.054,5.537,37.979,5.71c7.503,8.168,16.918,14.077,27.292,17.3
	c0.059,0.019,0.118,0.034,0.178,0.052c5.908,1.809,12.155,2.76,18.335,2.76c5.185,0,10.4-0.661,15.426-1.937
	c0.143-0.036,0.283-0.077,0.425-0.115c13.672-3.575,25.779-11.715,34.313-23.362c5.406-0.013,10.472-0.02,11.051-0.02
	c13.89,0,26.797,3.367,38.363,10.008c23.357,13.41,38.941,38.921,46.321,75.824c1.698,8.491-3.974,16.972-12.442,18.665
	c-8.468,1.691-16.971-3.968-18.666-12.443c-6.859-34.295-20.648-48.585-31.01-54.535c-8.082-4.641-17.597-6.291-26.828-5.591
	c-4.136,0.313-7.332,3.76-7.332,7.909v71.23h-99.244c0,0,0-65.929,0-66.087c0-6.867-6.212-7.851-11.592-7.851
	C113.46,157.009,100.553,153.642,88.986,147z M138.943,378.504v-46.318h30.817v36.263c-10.034,3.244-20.07,6.481-30.076,9.81
	C139.437,378.342,139.19,378.422,138.943,378.504z"/>
<g>
</g>
<g>
</g>
<g>
</g>
<g>
</g>
<g>
</g>
<g>
</g>
<g>
</g>
<g>
</g>
<g>
</g>
<g>
</g>
<g>
</g>
<g>
</g>
<g>
</g>
<g>
</g>
<g>
</g>
</svg>
