<svg height="512pt" viewBox="-9 0 512 512.09048" width="512pt" xmlns="http://www.w3.org/2000/svg"><path d="m102.445312 324.265625c41.546876-.089844 78.300782-26.949219 91-66.507813.628907-.972656 1.707032-1.5625 2.867188-1.5625s2.238281.589844 2.867188 1.5625c12.699218 39.558594 49.453124 66.421876 91 66.507813 45.734374-.070313 85.898437-30.410156 98.464843-74.382813 2.648438-9.101562 3.972657-18.539062 3.933594-28.015624v-59.734376c-.027344-23.550781-19.113281-42.636718-42.664063-42.667968h-307.203124c-23.550782.03125-42.6367192 19.117187-42.664063 42.667968v59.734376c-.0390625 9.441406 1.273437 18.84375 3.898437 27.910156 12.546876 44.019531 52.730469 74.40625 98.5 74.488281zm-85.332031-162.132813c0-14.136718 11.460938-25.597656 25.597657-25.597656h307.203124c14.136719 0 25.597657 11.460938 25.597657 25.597656v59.734376c.035156 7.878906-1.066407 15.722656-3.265625 23.285156-10.460938 36.671875-43.9375 61.980468-82.066406 62.046875-34.410157.101562-64.835938-22.316407-74.929688-55.210938-2.992188-7.859375-10.527344-13.058593-18.9375-13.058593s-15.945312 5.199218-18.933594 13.058593c-10.097656 32.894531-40.523437 55.3125-74.933594 55.210938-38.167968-.078125-71.660156-25.433594-82.097656-62.148438-2.179687-7.535156-3.269531-15.339843-3.234375-23.183593zm0 0"/><path d="m102.445312 290.132812c27.128907-.148437 51-17.953124 58.878907-43.910156 5.4375-14.625 19.390625-24.324218 34.988281-24.324218s29.554688 9.699218 34.988281 24.324218c3.695313 10.304688 18.839844 43.910156 58.878907 43.910156 30.574218-.136718 57.367187-20.488281 65.707031-49.902343 1.726562-5.96875 2.589843-12.152344 2.558593-18.363281v-59.734376c0-4.710937-3.820312-8.53125-8.53125-8.53125h-307.203124c-4.710938 0-8.53125 3.820313-8.53125 8.53125v59.734376c-.035157 6.316406.851562 12.601562 2.628906 18.660156 8.367187 29.324218 35.144531 49.558594 65.636718 49.605468zm-51.199218-119.464843h290.136718l-.003906 51.199219c.042969 4.617187-.589844 9.21875-1.875 13.652343-6.230468 22.117188-26.351562 37.433594-49.324218 37.546875-19.929688-.132812-37.378907-13.417968-42.804688-32.597656-7.851562-21.421875-28.242188-35.660156-51.058594-35.660156s-43.203125 14.238281-51.058594 35.660156c-5.4375 19.175781-22.882812 32.457031-42.8125 32.597656-22.894531-.035156-42.988281-15.242187-49.246093-37.265625-1.324219-4.523437-1.980469-9.21875-1.953125-13.933593zm0 0"/><path d="m76.847656 221.867188c2.261719 0 4.429688-.898438 6.03125-2.5l17.066406-17.066407c3.234376-3.347656 3.1875-8.671875-.101562-11.964843-3.292969-3.289063-8.617188-3.335938-11.964844-.101563l-17.066406 17.066406c-2.4375 2.441407-3.167969 6.109375-1.847656 9.296875 1.320312 3.1875 4.429687 5.269532 7.882812 5.269532zm0 0"/><path d="m87.878906 253.5c3.332032 3.332031 8.734375 3.332031 12.066406 0l34.132813-34.132812c3.234375-3.347657 3.1875-8.671876-.101563-11.964844-3.292968-3.289063-8.613281-3.335938-11.964843-.101563l-34.132813 34.132813c-3.332031 3.332031-3.332031 8.734375 0 12.066406zm0 0"/><path d="m418.179688 172.542969v181.589843c-1.1875 45.589844-35.59375 83.429688-80.863282 88.9375-45.273437 5.507813-87.746094-22.980468-99.832031-66.957031 2.332031-.851562 4.667969-1.59375 6.964844-2.558593 7-3.003907 12.300781-8.960938 14.472656-16.257813 2.171875-7.300781.984375-15.1875-3.234375-21.527344-6.65625-10.234375-19.691406-14.226562-30.941406-9.480469-16.878906 7.304688-36.027344 7.304688-52.90625 0-11.246094-4.753906-24.28125-.757812-30.933594 9.480469-4.222656 6.339844-5.410156 14.226563-3.242188 21.527344 2.167969 7.304687 7.472657 13.261719 14.472657 16.265625 4.617187 1.929688 9.351562 3.566406 14.171875 4.898438 14.242187 81.824218 88.296875 139.453124 171.113281 133.160156 82.816406-6.292969 147.308594-74.453125 149.023437-157.488282v-181.589843c5.410157-4.8125 8.511719-11.703125 8.535157-18.941407v-128c0-14.140624-11.460938-25.601562-25.601563-25.601562h-34.132812c-14.136719 0-25.601563 11.460938-25.601563 25.601562v128c.023438 7.238282 3.128907 14.128907 8.535157 18.941407zm-264.167969 179.882812c-.761719-2.59375-.269531-5.394531 1.335937-7.570312 1.601563-2.175781 4.128906-3.480469 6.832032-3.523438.992187-.003906 1.972656.195313 2.882812.589844 21.238281 9.1875 45.324219 9.1875 66.5625 0 3.667969-1.402344 7.820312-.027344 9.929688 3.285156 1.421874 2.125 1.816406 4.773438 1.078124 7.21875-.707031 2.4375-2.472656 4.425781-4.8125 5.410157-25.21875 10.714843-53.707031 10.714843-78.925781 0-2.363281-.96875-4.160156-2.957032-4.882812-5.410157zm315.367187 1.707031c-1.808594 72.886719-57.683594 132.984376-130.246094 140.089844-72.5625 7.101563-139.035156-41.015625-154.945312-112.167968 12.277344 1.597656 24.730469 1.152343 36.863281-1.3125 14.390625 52.183593 64.875 85.917968 118.59375 79.242187 53.71875-6.671875 94.414063-51.734375 95.601563-105.851563v-174.933593h34.132812zm-42.667968-328.53125c0-4.714843 3.824218-8.535156 8.535156-8.535156h34.132812c4.714844 0 8.535156 3.820313 8.535156 8.535156v128c0 4.710938-3.820312 8.53125-8.535156 8.53125h-34.132812c-4.710938 0-8.535156-3.820312-8.535156-8.53125zm0 0"/></svg>