<svg height="681pt" viewBox="-32 -21 681 681.33209" width="681pt" xmlns="http://www.w3.org/2000/svg"><path d="m213.582031 314.050781c3.996094-10.511719 14.070313-17.460937 25.316407-17.460937 11.242187 0 21.316406 6.949218 25.3125 17.460937 13.496093 43.96875 54.167968 73.9375 100.167968 73.800781 50.976563-.085937 95.726563-33.921874 109.710938-82.941406 2.9375-10.113281 4.410156-20.597656 4.367187-31.128906v-79.851562c0-18.902344-15.324219-34.226563-34.226562-34.226563h-410.667969c-18.898438 0-34.222656 15.324219-34.222656 34.226563v79.851562c-.046875 10.484375 1.410156 20.921875 4.324218 30.992188 13.953126 49.078124 58.730469 82.976562 109.753907 83.078124 45.996093.136719 86.667969-29.832031 100.164062-73.800781zm-100.164062 50.988281c-40.765625-.0625-76.558594-27.113281-87.75-66.308593-2.375-8.105469-3.558594-16.507813-3.511719-24.949219v-79.851562c0-6.300782 5.105469-11.410157 11.40625-11.410157h410.667969c6.300781 0 11.410156 5.109375 11.410156 11.410157v79.851562c.039063 8.304688-1.109375 16.570312-3.421875 24.550781-11.144531 39.320313-46.96875 66.527344-87.839844 66.707031-53.523437 0-73.769531-44.921874-78.710937-58.699218-7.261719-19.550782-25.914063-32.515625-46.769531-32.515625-20.851563 0-39.507813 12.964843-46.769532 32.515625-10.539062 34.699218-42.445312 58.5-78.710937 58.699218zm0 0"/><path d="m307.160156 298.648438c7.253906 25.640624 30.574219 43.402343 57.21875 43.574218 30.714844-.148437 57.613282-20.625 65.9375-50.1875 1.71875-5.933594 2.5625-12.082031 2.511719-18.253906v-68.449219h-387.859375v68.449219c-.035156 6.300781.84375 12.578125 2.613281 18.628906 8.363281 29.4375 35.226563 49.765625 65.835938 49.8125 26.644531-.191406 49.964843-17.957031 57.226562-43.597656 10.503907-28.636719 37.757813-47.671875 68.257813-47.671875s57.757812 19.035156 68.257812 47.671875zm-227.96875-24.867188c-4.609375 0-8.773437-2.78125-10.535156-7.042969-1.765625-4.265625-.789062-9.167969 2.46875-12.433593l22.816406-22.8125c4.476563-4.324219 11.59375-4.261719 15.992188.140624 4.398437 4.402344 4.460937 11.511719.140625 15.992188l-22.816407 22.8125c-2.136718 2.140625-5.039062 3.34375-8.066406 3.34375zm76.511719-3.34375-45.628906 45.628906c-4.476563 4.324219-11.589844 4.265625-15.992188-.136718-4.402343-4.402344-4.464843-11.515626-.140625-15.992188l45.632813-45.632812c4.472656-4.320313 11.589843-4.257813 15.992187.140624 4.398438 4.402344 4.457032 11.519532.136719 15.992188zm0 0"/><path d="m558.308594 0h45.628906c6.300781 0 11.410156 5.109375 11.410156 11.410156v171.109375c0 6.300781-5.109375 11.410157-11.410156 11.410157h-45.628906c-6.304688 0-11.410156-5.109376-11.410156-11.410157v-171.109375c0-6.300781 5.105468-11.410156 11.410156-11.410156zm0 0"/><path d="m294.285156 455.558594c3.121094-1.316406 5.488282-3.972656 6.433594-7.230469.988281-3.269531.460938-6.816406-1.441406-9.652344-2.820313-4.429687-8.371094-6.265625-13.277344-4.390625-28.386719 12.277344-60.59375 12.277344-88.976562 0-1.1875-.515625-2.460938-.789062-3.753907-.796875-3.605469.070313-6.96875 1.820313-9.09375 4.726563-2.132812 2.910156-2.785156 6.640625-1.765625 10.097656.9375 3.261719 3.292969 5.921875 6.417969 7.246094 33.699219 14.304687 71.757813 14.304687 105.457031 0zm0 0"/><path d="m558.308594 450.597656c-1.605469 72.328125-56.003906 132.542969-127.800782 141.464844-71.796874 8.917969-139.273437-36.15625-158.527343-105.898438-16.21875 3.304688-32.867188 3.894532-49.285157 1.757813 21.296876 95.09375 110.140626 159.394531 207.125 149.898437 96.988282-9.492187 171.675782-89.804687 174.117188-187.222656v-233.855468h-45.628906zm0 0"/></svg>