<?xml version="1.0" encoding="iso-8859-1"?>
<!-- Generator: Adobe Illustrator 19.0.0, SVG Export Plug-In . SVG Version: 6.00 Build 0)  -->
<svg version="1.1" id="Capa_1" xmlns="http://www.w3.org/2000/svg" xmlns:xlink="http://www.w3.org/1999/xlink" x="0px" y="0px"
	 viewBox="0 0 496 496" style="enable-background:new 0 0 496 496;" xml:space="preserve">
<g>
	<g>
		<circle cx="288.004" cy="168" r="8"/>
	</g>
</g>
<g>
	<g>
		<circle cx="208.004" cy="168" r="8"/>
	</g>
</g>
<g>
	<g>
		<path d="M264.004,216c0,8.824-7.176,16-16,16c-8.824,0-16-7.176-16-16h-16c0,17.648,14.352,32,32,32s32-14.352,32-32H264.004z"/>
	</g>
</g>
<g>
	<g>
		<path d="M482.348,354.344c-8.248,8.248-14.144,18.424-17.344,29.48h-0.048c-1.608,5.08-18.512,12.144-48.952,18.36V370.6
			c0-24.144-15.392-45.496-38.288-53.12l-81.712-27.248v-16.576c17.68-11.56,30.912-29.304,36.712-50.136
			c19.816-2.36,35.288-19.08,35.288-39.52v-64c0-66.168-53.832-120-120-120s-120,53.832-120,120v64
			c0,20.44,15.472,37.16,35.288,39.52c5.792,20.84,19.032,38.576,36.712,50.136v16.576l-81.712,27.24
			c-8.648,2.88-16.208,7.72-22.288,13.92v-118.52c0-23.896,2.624-47.832,7.816-71.144c5.424-24.44,8.184-49.544,8.184-74.6V24
			c0-13.232-10.768-24-24-24h-32c-13.232,0-24,10.768-24,24v43.128c0,25.064,2.76,50.168,8.184,74.608
			c5.192,23.312,7.816,47.24,7.816,71.136v180.672c-10.56-3.784-16.44-7.456-17.168-10.448l-0.056,0.008
			c-3.248-10.784-9.056-20.696-17.128-28.768L2.34,365.648c8.952,8.952,14.384,20.84,15.288,33.488l2.376,33.096
			C22.548,467.992,52.628,496,88.484,496h319.04c35.848,0,65.928-28.008,68.48-63.768l2.368-33.096
			c0.904-12.64,6.336-24.528,15.288-33.488L482.348,354.344z M400.004,370.592v34.536c-13.872,2.336-29.848,4.448-47.888,6.192
			c0.568-27.456,8.144-54.328,22.088-78.016C389.676,339.2,400.004,353.92,400.004,370.592z M335.668,206.632
			c0.168-2.2,0.336-4.392,0.336-6.632v-38.528c9.288,3.312,16,12.112,16,22.528C352.004,194.536,345.132,203.416,335.668,206.632z
			 M144.004,184c0-10.416,6.712-19.216,16-22.528V200c0,2.24,0.168,4.432,0.336,6.632C150.876,203.416,144.004,194.536,144.004,184z
			 M160.004,120v24.808c-5.944,1.216-11.328,3.856-16,7.392V120c0-57.344,46.656-104,104-104s104,46.656,104,104v32.208
			c-4.672-3.536-10.056-6.184-16-7.392V120h-24c-22.536,0-44.072-10.768-57.6-28.808l-6.4-8.52l-6.4,8.52
			C228.076,109.232,206.54,120,184.004,120H160.004z M176.004,200v-64h8c24.224,0,47.496-10.168,64-27.616
			c16.504,17.448,39.776,27.616,64,27.616h8v64c0,39.704-32.296,72-72,72C208.3,272,176.004,239.704,176.004,200z M280.004,281.888
			v10.8l-32,32l-32-32v-10.8c9.936,3.896,20.704,6.112,32,6.112S270.068,285.784,280.004,281.888z M205.844,305.152L236.692,336
			h-12.688v16h16v16h-16v16h16v16h16v-16h16v-16h-16v-16h16v-16h-12.688l30.848-30.848l68.672,22.888
			c-14.576,25.864-22.448,54.976-22.768,84.688c-25.824,2.024-55.2,3.272-88.064,3.272c-32.92,0-62.272-1.256-88.064-3.28
			c-0.328-29.712-8.192-58.816-22.768-84.672L205.844,305.152z M121.804,333.304c13.936,23.68,21.512,50.536,22.088,77.992
			c-18.048-1.752-34.024-3.888-47.888-6.24V370.6C96.004,353.92,106.332,339.2,121.804,333.304z M48.004,24c0-4.416,3.584-8,8-8h32
			c4.416,0,8,3.584,8,8v43.128c0,23.896-2.624,47.832-7.816,71.144c-5.424,24.44-8.184,49.544-8.184,74.6v157.72v31.464
			c-5.792-1.2-11.208-2.416-16-3.656V212.872c0-25.056-2.76-50.16-8.184-74.608c-5.192-23.312-7.816-47.24-7.816-71.136V24z
			 M407.524,480H88.484c-25.104,0-46.464-17.928-51.488-41.92C72.524,453.672,153.86,464,248.004,464
			c94.136,0,175.48-10.328,211.016-25.92C453.988,462.072,432.628,480,407.524,480z M460.924,418.928
			C442.06,433.192,362.492,448,248.004,448c-114.496,0-194.056-14.808-212.92-29.072l-1.032-14.416
			C77.708,425.784,185.644,432,248.004,432c63.048,0,170.568-6.176,213.928-27.168L460.924,418.928z"/>
	</g>
</g>
<g>
</g>
<g>
</g>
<g>
</g>
<g>
</g>
<g>
</g>
<g>
</g>
<g>
</g>
<g>
</g>
<g>
</g>
<g>
</g>
<g>
</g>
<g>
</g>
<g>
</g>
<g>
</g>
<g>
</g>
</svg>
