<?xml version="1.0" encoding="iso-8859-1"?>
<!-- Generator: Adobe Illustrator 17.1.0, SVG Export Plug-In . SVG Version: 6.00 Build 0)  -->
<!DOCTYPE svg PUBLIC "-//W3C//DTD SVG 1.1//EN" "http://www.w3.org/Graphics/SVG/1.1/DTD/svg11.dtd">
<svg version="1.1" id="Capa_1" xmlns="http://www.w3.org/2000/svg" xmlns:xlink="http://www.w3.org/1999/xlink" x="0px" y="0px"
	 viewBox="0 0 475.8 475.8" style="enable-background:new 0 0 475.8 475.8;" xml:space="preserve">
<path d="M474.913,362.361c-1.305-2.438-3.847-3.961-6.613-3.961H282.9v-61.8H442.7c2.784,0,5.338-1.542,6.636-4.005
	s1.124-5.441-0.451-7.737L282.9,42.821V33.1c0-4.143-3.358-7.5-7.5-7.5s-7.5,3.357-7.5,7.5v50.598L163.422,272.671
	c-1.285,2.323-1.245,5.152,0.104,7.439c1.349,2.286,3.805,3.689,6.46,3.689h80.5c4.142,0,7.5-3.357,7.5-7.5s-3.358-7.5-7.5-7.5
	h-67.783L267.9,114.699v243.7H252.6v-3.7c0-26.191-21.309-47.5-47.5-47.5H143V138.234c0-0.009,0-0.017,0-0.026V133.7
	c0-4.143-3.358-7.5-7.5-7.5s-7.5,3.357-7.5,7.5v2.196L26.894,284.889c-1.559,2.298-1.721,5.269-0.421,7.723s3.85,3.988,6.627,3.988
	h76.8c4.142,0,7.5-3.357,7.5-7.5s-3.358-7.5-7.5-7.5H47.254L128,162.608V307.2h-18.1c-4.142,0-7.5,3.357-7.5,7.5V332.8H58.7
	c-4.142,0-7.5,3.357-7.5,7.5v18.1H7.5c-2.411,0-4.675,1.159-6.084,3.114c-1.41,1.956-1.793,4.471-1.031,6.758l25.6,76.8
	c1.021,3.063,3.887,5.128,7.115,5.128h384c2.508,0,4.85-1.253,6.24-3.34l51.2-76.8C476.074,367.758,476.217,364.799,474.913,362.361
	z M428.463,281.6H282.9V85.716c0-0.017,0-0.033,0-0.049V69.343L428.463,281.6z M413.087,435.2H38.506l-20.6-61.8h197.093
	c4.142,0,7.5-3.357,7.5-7.5s-3.358-7.5-7.5-7.5H66.2v-10.6h43.7c4.142,0,7.5-3.357,7.5-7.5V322.2h87.7
	c9.491,0,18.044,4.091,23.991,10.601H141.9c-4.142,0-7.5,3.357-7.5,7.5s3.358,7.5,7.5,7.5h94.956
	c0.483,2.225,0.744,4.532,0.744,6.899v11.2c0,4.143,3.358,7.5,7.5,7.5c0.421,0,0.831-0.043,1.233-0.11
	c0.402,0.067,0.812,0.11,1.233,0.11h206.72L413.087,435.2z"/>
<g>
</g>
<g>
</g>
<g>
</g>
<g>
</g>
<g>
</g>
<g>
</g>
<g>
</g>
<g>
</g>
<g>
</g>
<g>
</g>
<g>
</g>
<g>
</g>
<g>
</g>
<g>
</g>
<g>
</g>
</svg>
