<?xml version="1.0" encoding="iso-8859-1"?>
<!-- Generator: Adobe Illustrator 19.0.0, SVG Export Plug-In . SVG Version: 6.00 Build 0)  -->
<svg version="1.1" id="Capa_1" xmlns="http://www.w3.org/2000/svg" xmlns:xlink="http://www.w3.org/1999/xlink" x="0px" y="0px"
	 viewBox="0 0 464.009 464.009" style="enable-background:new 0 0 464.009 464.009;" xml:space="preserve">
<g>
	<g>
		<path d="M463.4,356.941c-1.24-2.992-4.168-4.936-7.4-4.936H208v-80h16v56c0,4.424,3.576,8,8,8h64c47.776,0,72-56.52,72-168
			c0-133.4-134.576-135.992-135.936-136c-1.968,0-4.176,0.824-5.696,2.32c-1.52,1.496-2.368,3.544-2.368,5.68v24h-16v-56
			c0-4.424-3.576-8-8-8s-8,3.576-8,8v88h-16v-24c0-3.712-2.552-6.928-6.168-7.792c-3.592-0.832-7.336,0.88-8.992,4.208l-128,256
			c-1.24,2.48-1.112,5.424,0.352,7.784s4.032,3.8,6.808,3.8h128c4.424,0,8-3.576,8-8v-24h16v48H8c-2.952,0-5.664,1.624-7.056,4.224
			c-1.392,2.6-1.232,5.76,0.4,8.208l54.496,81.752c7.44,11.16,19.88,17.816,33.288,17.816h257.616
			c10.688,0,20.736-4.168,28.288-11.72l54.616-54.616c0.008-0.008,0.016-0.016,0.024-0.016l31.992-31.992
			C463.952,363.373,464.64,359.933,463.4,356.941z M240,48.501c27.136,2.584,112,18.728,112,119.504c0,98.016-19.888,152-56,152h-56
			V48.501z M208,80.005h16v176h-16V80.005z M160,320.005H52.944L160,105.893V320.005z M176,288.005v-176h16v176H176z
			 M420.688,384.005H360c-4.424,0-8,3.576-8,8s3.576,8,8,8h44.688l-40.968,40.968c-4.536,4.536-10.56,7.032-16.976,7.032H89.128
			c-8.04,0-15.504-3.992-19.968-10.688l-46.216-69.312h413.744L420.688,384.005z"/>
	</g>
</g>
<g>
	<g>
		<path d="M136,384.005H72c-4.424,0-8,3.576-8,8s3.576,8,8,8h64c4.424,0,8-3.576,8-8S140.424,384.005,136,384.005z"/>
	</g>
</g>
<g>
	<g>
		<path d="M232,384.005h-64c-4.424,0-8,3.576-8,8s3.576,8,8,8h64c4.424,0,8-3.576,8-8S236.424,384.005,232,384.005z"/>
	</g>
</g>
<g>
	<g>
		<path d="M328,384.005h-64c-4.424,0-8,3.576-8,8s3.576,8,8,8h64c4.424,0,8-3.576,8-8S332.424,384.005,328,384.005z"/>
	</g>
</g>
<g>
</g>
<g>
</g>
<g>
</g>
<g>
</g>
<g>
</g>
<g>
</g>
<g>
</g>
<g>
</g>
<g>
</g>
<g>
</g>
<g>
</g>
<g>
</g>
<g>
</g>
<g>
</g>
<g>
</g>
</svg>
