<svg id="Layer_3" enable-background="new 0 0 64 64" height="512" viewBox="0 0 64 64" width="512" xmlns="http://www.w3.org/2000/svg"><path d="m12 52c0-1.654 1.346-3 3-3h5c.425 0 .803-.269.943-.669.141-.401.013-.847-.318-1.112l-2.535-2.026c-1.766-1.415-3.985-2.193-6.247-2.193h-.584c-2.335 0-4.608.823-6.402 2.317-2.451 2.043-3.857 5.044-3.857 8.235v.448c0 4.963 4.037 9 9 9h53v-2h-53c-3.859 0-7-3.141-7-7v-.448c0-2.595 1.144-5.036 3.138-6.697 1.434-1.197 3.253-1.855 5.121-1.855h.584c1.81 0 3.585.623 4.997 1.754l.308.246h-2.148c-2.757 0-5 2.243-5 5s2.243 5 5 5h48v-2h-48c-1.654 0-3-1.346-3-3z"/><path d="m40 11c2.757 0 5-2.243 5-5s-2.243-5-5-5-5 2.243-5 5 2.243 5 5 5zm0-8c1.654 0 3 1.346 3 3s-1.346 3-3 3-3-1.346-3-3 1.346-3 3-3z"/><path d="m59.266 50.036-7.369-2.027-.865-7.785 2.826-4.71-.019-.011c.123-.206.189-.442.145-.682l-2-11c-.008-.047-.02-.093-.035-.138l-1.562-4.683h.873c.238 0 .47.086.651.24l5.857 5.021c.554.476 1.263.739 1.996.739h.173c1.689 0 3.063-1.374 3.063-3.063 0-.884-.382-1.725-1.047-2.306l-6.729-5.888c-.546-.479-1.248-.743-1.976-.743h-5.132c-.926-1.235-2.392-2-3.998-2h-.118c-1.305 0-2.407.843-2.818 2.009-.03-.001-.058-.009-.087-.009h-.579c-.513 0-1.02.137-1.464.396h-.001l-10.61 6.189c-.889.52-1.44 1.48-1.44 2.51-.001 1.601 1.303 2.905 2.904 2.905h.579c.513 0 1.02-.137 1.465-.396l8.375-4.885 1.455 7.273-2.226 1.113c-.442.221-.643.73-.495 1.194l-3.385 1.354c-.967.388-1.674 1.267-1.844 2.293l-1.609 9.652-12.954-3.562-.531 1.928 40 11zm-9.446-2.597-1.95-.536-.846-6.771 1.653-4.132h2.557l-2.091 3.485c-.112.188-.16.407-.137.625zm-8.642-12.91c.12.185.281.341.493.415.106.037.218.056.329.056.172 0 .344-.045.496-.132l3.36-1.92 1.049 2.097-1.833 4.583c-.062.157-.085.327-.063.495l.776 6.204-8.559-2.354 1.66-8.299zm12.729-19.281 6.729 5.889c.232.202.364.493.364.8 0 .585-.478 1.063-1.063 1.063h-.173c-.255 0-.5-.091-.693-.256l-5.858-5.021c-.544-.466-1.237-.723-1.953-.723h-1.539l-.667-2h4.194c.243 0 .477.088.659.248zm-22.965 7.628c-.139.081-.297.124-.458.124h-.579c-.499 0-.905-.406-.905-.905 0-.321.172-.621.449-.782l10.609-6.188c.14-.082.297-.125.458-.125h.579c.499 0 .905.406.905.905 0 .321-.172.621-.449.782zm11.208-4.222.409-.239c.889-.52 1.44-1.48 1.44-2.51 0-.848-.372-1.605-.953-2.137.108-.436.484-.768.954-.768h.117c1.293 0 2.437.824 2.847 2.052l3.065 9.197.137.751h-4.166c-.155 0-.309.036-.447.105l-1.92.96zm4.086 8.346h4.293l1.272 7h-3.184l-1.023-2.046 1.901-1.086-.992-1.736-6.002 3.43-1.231-3.078zm-10.434 6.273c.057-.342.292-.634.614-.763l3.372-1.349.609 1.522-2.844 1.422c-.276.138-.473.396-.533.698l-1.728 8.64-1.133-.312z"/><path d="m5 33c1.565 0 3.061.748 4 2l4.2 5.6c.193.258.492.4.8.4.122 0 .245-.022.363-.068.418-.163.677-.585.632-1.031l-.342-3.419c-.447-4.464-3.109-8.327-7.122-10.334l-2.084-1.042c-.138-.07-.292-.106-.447-.106-2.206 0-4 1.794-4 4s1.794 4 4 4zm-.214-5.988 1.851.925c3.351 1.676 5.588 4.88 6.011 8.593l-2.048-2.729c-1.315-1.754-3.409-2.801-5.6-2.801-1.103 0-2-.897-2-2 0-1.03.784-1.882 1.786-1.988z"/></svg>