<svg id="Layer_3" enable-background="new 0 0 64 64" height="512" viewBox="0 0 64 64" width="512" xmlns="http://www.w3.org/2000/svg"><path d="m10 52c0-2.757 2.243-5 5-5h2.148l-.309-.246c-1.411-1.131-3.187-1.754-4.996-1.754h-.584c-1.868 0-3.687.658-5.121 1.854-1.994 1.662-3.138 4.103-3.138 6.698v.448c0 3.859 3.141 7 7 7h51v-4h-46c-2.757 0-5-2.243-5-5z"/><circle cx="40" cy="6" r="3"/><path d="m51.26 17c.716 0 1.409.257 1.952.723l5.858 5.021c.194.165.439.256.694.256h.173c.585 0 1.063-.478 1.063-1.063 0-.307-.132-.598-.363-.8l-6.729-5.889c-.183-.16-.417-.248-.66-.248h-4.194l.667 2z"/><path d="m48.618 34h3.184l-1.273-7h-4.293l-4.965 2.483 1.231 3.079 6.002-3.43.992 1.736-1.901 1.086z"/><path d="m42.56 18.415-.409.239 1.482 7.412 1.92-.96c.138-.07.292-.106.447-.106h4.166l-.137-.751-3.065-9.197c-.41-1.228-1.554-2.052-2.847-2.052h-.117c-.47 0-.846.332-.953.769.581.531.953 1.288.953 2.136 0 1.03-.552 1.991-1.44 2.51z"/><path d="m29.905 23h.579c.16 0 .318-.043.458-.124l10.608-6.188c.278-.162.45-.461.45-.783 0-.499-.406-.905-.905-.905h-.579c-.16 0-.317.043-.457.124l-10.609 6.188c-.278.162-.45.461-.45.783 0 .499.406.905.905.905z"/><path d="m59.266 50.036-9.445-2.597-.815-7.328c-.023-.218.024-.438.137-.625l2.091-3.486h-2.557l-1.653 4.132.846 6.771-12.579-3.459 1.728-8.639c.061-.303.257-.561.533-.698l2.844-1.422-.609-1.522-3.372 1.349c-.322.129-.558.421-.614.763l-1.643 9.858-14.893-4.096-.531 1.928 40 11z"/><path d="m9.8 34.4 4.2 5.6-.342-3.419c-.41-4.097-2.891-7.698-6.574-9.539l-2.084-1.042c-1.657 0-3 1.343-3 3s1.343 3 3 3c1.889 0 3.667.889 4.8 2.4z"/></svg>