<?xml version="1.0" encoding="iso-8859-1"?>
<!-- Generator: Adobe Illustrator 19.0.0, SVG Export Plug-In . SVG Version: 6.00 Build 0)  -->
<svg version="1.1" id="Capa_1" xmlns="http://www.w3.org/2000/svg" xmlns:xlink="http://www.w3.org/1999/xlink" x="0px" y="0px"
	 viewBox="0 0 511.999 511.999" style="enable-background:new 0 0 511.999 511.999;" xml:space="preserve">
<g>
	<g>
		<path d="M290.015,73.572c-10.276-6.578-12.082-10.536-20.186-36.798c-5.736-18.597-11.156-36.163-28.915-36.768
			C240.83,0.001,240.745,0,240.66,0c-9.187,0-25.794,4.239-29.767,20.131c-3.296,13.187-23.819,35.277-29.463,36.688
			c-11.935,2.984-44.092,25.539-35.113,45.303c5.89,12.96,12.434,24.913,11.392,38.466c-0.433,5.619,1.816,9.218,3.779,11.248
			c5.84,6.037,16.05,5.594,24.259,5.238c0.587-0.026,1.249-0.055,1.929-0.08c-6.194,26.942-9.781,53.098,4.291,63.627
			c6.492,4.858-2.009,23.28-6.094,32.133c-1.752,3.795-3.136,6.794-3.815,9.172c-2.409,8.437-12.497,51.906,25.731,79.21
			c8.27,5.906,12.738,11.284,12.584,15.14c-0.255,6.376-12.902,13.964-23.065,20.06c-5.705,3.421-7.934,5.177-17.404,8.264
			c-9.346,3.045-4.863,17.369,4.648,14.263c6.747-2.199,11.775-4.377,15.824-6.855c1.526-0.935,3.084-1.869,4.647-2.807
			c14.63-8.777,29.759-17.852,30.337-32.324c0.379-9.473-5.788-18.613-18.854-27.946c-30.031-21.449-21.951-56.145-20.026-62.882
			c0.362-1.265,1.709-4.184,3.012-7.008c6.61-14.323,17.674-38.296,1.462-50.43c-1.102-0.825-4.609-4.716-3.477-20.174
			c0.791-10.784,3.491-22.391,5.105-29.323c0.62-2.667,1.068-4.594,1.282-5.911c0.449-2.77-0.334-5.53-2.149-7.572
			c-3.649-4.106-9.377-3.854-16.62-3.542c-2.814,0.122-9.934,0.432-12.418-0.517c1.301-17.675-6.724-32.504-12.704-45.656
			c-2.634-5.787,16.189-22.316,25.095-24.542c12.776-3.194,36.173-30.777,40.378-47.604c2.03-8.124,13.913-8.726,15.115-8.765
			c6.307,0.343,9.412,8.292,14.933,26.19c8.186,26.528,11.134,35.213,26.43,45.009c3.487,2.232,8.128,1.217,10.362-2.271
			C294.519,80.445,293.503,75.806,290.015,73.572z"/>
	</g>
</g>
<g>
	<g>
		<path d="M453.498,343.923c-7.773-6.232-18.009,0.852-32.177,10.656c-5.481,3.792-14.463,10.007-18.025,10.875
			c-1.922-1.177-2.243-3.433-2.252-4.757c-0.029-4.569,3.482-11.376,13.474-15.523c25.655-10.65,38.097-48.937,33.613-63.98
			c-4.171-14-36.124-42.168-37.949-51.903c-3.922-20.921-32.08-20.345-36.423,3.233c-0.433,2.352-3.611,3.451-5.467,3.898
			c-6.085,1.467-12.233-0.216-14.279-1.604c0.944-1.677,3.556-4.589,5.374-6.617c21.529-24.004,16.663-37.84-6.43-60.556
			c-8.584-8.441-12.501-12.293-12.89-39.837c-0.339-24.016-14.309-34.946-26.442-41.786c-3.61-2.034-8.184-0.758-10.218,2.85
			c-2.034,3.608-0.758,8.184,2.85,10.218c11.452,6.456,18.593,13.548,18.81,28.93c0.648,45.961,12.995,41.421,29.44,63.926
			c6.98,9.551,3.25,15.605-6.287,26.239c-5.014,5.589-9.75,10.87-9.502,17.581c0.323,8.71,9.072,15.182,21.772,16.105
			c14.714,1.073,25.992-5.61,28.022-16.629c1.103-5.984,5.934-8.464,6.927-3.188c2.939,15.685,35.348,43.466,38.316,53.422
			c2.562,8.596-7.32,38.507-24.988,45.841c-13.881,5.76-22.801,17.329-22.723,29.474c0.056,8.648,4.797,15.904,12.375,18.936
			c11.152,4.46,26.887-10.839,43-20.463c-0.677,2.28-1.743,5.359-3.413,9.474c-13.773,33.922-37.842,45.036-70.522,41.523
			c-15.819-1.717-27.441,21.633-38.931,21.633c-9.22,0-13.045-21.274-37.731-21.274c-27.052,0-32.452,36.985-44.035,41.441
			c-2.133,0.822-2.309,0.89-6.35-4.291c-4.809-6.162-12.075-15.476-28.285-15.476c-29.799,0-26.624,40.293-42.948,44.827
			c-16.675,4.631-14.591-5.867-30.821-18.04c-5.963-4.472-13.45-3.741-22.256,2.171c-14.085,9.456-38.769,39.004-46.685,35.486
			c2.272-11.363,34.389-40.528,45.914-64.537c6.354-13.239,21.94-19.99,43.384-26.052c3.986-1.126,6.304-5.271,5.177-9.258
			c-1.126-3.985-5.273-6.307-9.258-5.177c-21.94,6.201-43.524,14.611-52.828,33.996c-13.233,27.567-51.544,55.95-47.074,74.941
			c1.734,7.367,9.103,11.35,15.873,11.347c12.247-0.001,24.959-12.112,37.317-23.888c6.188-5.896,17.62-16.79,21.615-16.89
			c12.518,9.51,17.264,27.682,43.654,20.356c25.4-7.059,22.18-44.28,38.934-44.28c8.888,0,12.228,4.281,16.458,9.703
			c4.068,5.214,10.88,13.947,23.563,9.065c18.9-7.27,22.425-40.441,38.651-40.441c17.779,0,18.001,21.274,37.731,21.274
			c18.196,0,31.092-22.398,37.997-21.647c41.509,4.513,70.292-13.768,85.355-50.868
			C457.906,359.599,460.268,349.348,453.498,343.923z"/>
	</g>
</g>
<g>
	<g>
		<path d="M161.832,219.674c-7.539-8.165-13.085-32.411-37.855-31.087c-12.983,0.682-26.81,3.513-30.914,19.35
			c-1.803,6.953-12.166,15.822-23.046,26.391c-6.882,6.685-8.143,13.119-7.988,17.34c0.268,7.294,4.706,12.219,6.418,13.854
			c3.755,4.356,7.715,6.476,12.092,6.476c13.436,0,15.775-19.183,35.574-2.174c6.115,5.252,11.754,9.194,21.031,8.267
			c18.016-1.804,15.241-15.567,21.741-19.733C175.595,247.646,170.198,228.799,161.832,219.674z M154.739,240.642
			c-0.925,6.142-7.932,3.374-14.081,18.208c-1.585,3.826-1.646,3.976-5.009,4.312c-8.951,0.917-14.229-15.293-34.024-15.293
			c-10.737,0-17.155,6.626-20.869,8.849c-0.897-0.811-1.168-1.391-2.068-2.145c-8.906-7.794,23.557-22.271,28.896-42.873
			c0.847-3.267,1.9-7.332,17.181-8.135c14.205-0.745,16.424,15.714,25.901,26.127C151.753,231.034,155.369,236.475,154.739,240.642z
			"/>
	</g>
</g>
<g>
</g>
<g>
</g>
<g>
</g>
<g>
</g>
<g>
</g>
<g>
</g>
<g>
</g>
<g>
</g>
<g>
</g>
<g>
</g>
<g>
</g>
<g>
</g>
<g>
</g>
<g>
</g>
<g>
</g>
</svg>
