<svg height="390pt" viewBox="0 -3 390.192 390" width="390pt" xmlns="http://www.w3.org/2000/svg"><path d="m240 288.097656h-32v-64h64c61.761719 0 112-50.242187 112-112 0-61.761718-50.238281-111.9999998-112-111.9999998h-224v31.9999998c44.113281 0 80 35.886719 80 80 0 44.109375-35.886719 80-80 80v32h128v64h-32v-32h-144v80c0 26.46875 21.527344 48 48 48h299.527344l42.664062-128h-150.191406zm-113.6875-256h145.6875c38.632812 0 70.953125 27.527344 78.382812 64h-191.664062c-3.582031-24.890625-15.238281-47.195312-32.40625-64zm0 160c17.167969-16.808594 28.832031-39.113281 32.414062-64h191.664063c-7.429687 36.46875-39.75 64-78.382813 64zm145.6875 96h73.800781l-21.335937 64h-276.464844c-8.824219 0-16-7.175781-16-16v-48h80v32h160zm0 0"/></svg>