<?xml version="1.0" encoding="iso-8859-1"?>
<!-- Generator: Adobe Illustrator 18.0.0, SVG Export Plug-In . SVG Version: 6.00 Build 0)  -->
<!DOCTYPE svg PUBLIC "-//W3C//DTD SVG 1.1//EN" "http://www.w3.org/Graphics/SVG/1.1/DTD/svg11.dtd">
<svg version="1.1" id="Capa_1" xmlns="http://www.w3.org/2000/svg" xmlns:xlink="http://www.w3.org/1999/xlink" x="0px" y="0px"
	 viewBox="0 0 395.762 395.762" style="enable-background:new 0 0 395.762 395.762;" xml:space="preserve">
<g>
	<path style="fill:#211915;" d="M393.953,186.245c-1.872-2.672-4.929-4.264-8.191-4.264h-81.06
		c-22.726-20.717-52.661-32.581-83.964-32.581h-63.411c5.357-5.077,12.564-8.073,20.387-8.073h42.7c4.481,0,8.416-2.981,9.627-7.296
		c1.212-4.314-0.595-8.908-4.421-11.242c-30.328-18.493-65.134-28.269-100.656-28.269H84.68c-21.584,0-41.084,13.612-48.525,33.873
		c-1.126,3.067-0.683,6.491,1.188,9.171c1.87,2.68,4.932,4.276,8.2,4.276h24.167l-41.133,89.218
		c-8.263,4.833-16.368,10.001-24.29,15.519C1.601,248.446,0,251.512,0,254.783v36.458c0,5.522,4.477,10,10,10h234.01
		c33.179,0,65.083-10.06,92.261-29.091s47.542-45.57,58.888-76.749C396.274,192.335,395.825,188.918,393.953,186.245z
		 M244.01,281.241H20v-21.188c56.364-38.008,121.972-58.071,190.078-58.071h160.595C347.319,249.925,298.104,281.241,244.01,281.241
		z M94.412,136.027c1.427-3.096,1.179-6.706-0.659-9.578c-1.838-2.871-5.013-4.608-8.422-4.608H64.457
		c5.576-4.618,12.692-7.32,20.223-7.32h40.284c16.553,0,32.934,2.368,48.667,6.97c-20.236,1.628-37.383,15.277-43.398,34.992
		c-0.925,3.031-0.358,6.321,1.528,8.868c1.886,2.548,4.867,4.05,8.037,4.05h80.94c17.552,0,34.588,4.448,49.654,12.581h-60.313
		c-53.209,0-104.976,11.567-152.434,33.797L94.412,136.027z"/>
	<path style="fill:#211915;" d="M201.301,229.814h-29.624c-5.523,0-10,4.478-10,10s4.477,10,10,10h29.624c5.523,0,10-4.478,10-10
		S206.824,229.814,201.301,229.814z"/>
	<path style="fill:#211915;" d="M286,229.814h-29.624c-5.523,0-10,4.478-10,10s4.477,10,10,10H286c5.523,0,10-4.478,10-10
		S291.522,229.814,286,229.814z"/>
</g>
<g>
</g>
<g>
</g>
<g>
</g>
<g>
</g>
<g>
</g>
<g>
</g>
<g>
</g>
<g>
</g>
<g>
</g>
<g>
</g>
<g>
</g>
<g>
</g>
<g>
</g>
<g>
</g>
<g>
</g>
</svg>
