<?xml version="1.0" encoding="iso-8859-1"?>
<!-- Generator: Adobe Illustrator 19.0.0, SVG Export Plug-In . SVG Version: 6.00 Build 0)  -->
<svg version="1.1" id="Capa_1" xmlns="http://www.w3.org/2000/svg" xmlns:xlink="http://www.w3.org/1999/xlink" x="0px" y="0px"
	 viewBox="0 0 512 512" style="enable-background:new 0 0 512 512;" xml:space="preserve">
<g>
	<g>
		<path d="M509.821,467.046c-3.44-4.319-9.731-5.032-14.049-1.592c-10.778,8.585-25.844,8.599-36.646,0.028l-0.149-0.119
			c-18.125-14.383-43.426-14.36-61.525,0.056c-10.784,8.589-25.839,8.601-36.634,0.038c-0.017-0.014-0.033-0.027-0.05-0.04
			c-18.099-14.414-43.398-14.438-61.528-0.049l-0.193,0.153c-10.772,8.551-25.823,8.551-36.597,0.002l-0.202-0.161
			c-18.127-14.384-43.425-14.359-61.566,0.088c-10.779,8.586-25.846,8.598-36.645,0.028l-0.189-0.15
			c-18.098-14.364-43.375-14.362-61.472,0.007l-0.187,0.148c-10.795,8.571-25.866,8.559-36.608,0.003
			c-0.014-0.011-0.066-0.053-0.08-0.064c-18.103-14.419-43.402-14.441-61.536-0.051l-0.19,0.151
			c-4.322,3.436-5.04,9.724-1.604,14.047c3.436,4.321,9.723,5.042,14.047,1.605l0.185-0.146c10.793-8.566,25.862-8.554,36.602,0.002
			c0.014,0.011,0.066,0.054,0.08,0.064c18.106,14.422,43.412,14.443,61.541,0.047l0.187-0.148
			c10.776-8.558,25.831-8.557,36.611-0.001l0.189,0.15c18.127,14.389,43.428,14.366,61.57-0.084
			c10.778-8.584,25.844-8.597,36.638-0.034l0.202,0.161c9.045,7.179,19.883,10.767,30.725,10.767
			c10.842-0.001,21.688-3.592,30.735-10.773l0.193-0.153c10.777-8.554,25.817-8.555,36.594-0.004
			c0.016,0.013,0.032,0.026,0.048,0.039c18.133,14.441,43.46,14.44,61.592-0.002c10.779-8.585,25.844-8.598,36.647-0.027
			l0.149,0.118c18.124,14.382,43.422,14.361,61.524-0.056C512.548,477.654,513.26,471.365,509.821,467.046z"/>
	</g>
</g>
<g>
	<g>
		<path d="M119.616,352.882c-1.859-1.869-4.429-2.929-7.068-2.929c-2.629,0-5.208,1.06-7.068,2.929
			c-1.859,1.859-2.929,4.439-2.929,7.068c0,2.629,1.071,5.208,2.929,7.068c1.859,1.859,4.439,2.929,7.068,2.929
			c2.639,0,5.208-1.07,7.068-2.929c1.859-1.859,2.929-4.439,2.929-7.068C122.545,357.321,121.474,354.742,119.616,352.882z"/>
	</g>
</g>
<g>
	<g>
		<path d="M70.518,430.218l-0.14-0.116c-19.685-16.312-35.255-36.913-45.568-60.158h41.711c5.52,0,9.997-4.476,9.997-9.997
			s-4.477-9.997-9.997-9.997H10.149c-3.231,0-6.262,1.562-8.139,4.191c-1.876,2.63-2.365,6.004-1.315,9.059
			c11.061,32.147,30.745,60.605,56.918,82.294l0.135,0.112c1.866,1.55,4.129,2.304,6.378,2.304c2.872,0,5.722-1.232,7.701-3.615
			C75.353,440.046,74.766,433.743,70.518,430.218z"/>
	</g>
</g>
<g>
	<g>
		<path d="M510.141,354.141c-1.876-2.629-4.908-4.191-8.139-4.191h-235.93V30.045c0-5.521-4.477-9.997-9.997-9.997
			c-5.52,0-9.997,4.476-9.997,9.997V349.95h-92.473c-5.52,0-9.997,4.476-9.997,9.997s4.477,9.997,9.997,9.997h333.736
			c-10.313,23.245-25.883,43.847-45.572,60.162l-0.135,0.112c-4.249,3.525-4.836,9.828-1.311,14.077
			c1.978,2.383,4.828,3.614,7.7,3.614c2.249,0,4.512-0.756,6.378-2.304l0.13-0.107c26.179-21.693,45.862-50.151,56.923-82.299
			C512.507,360.145,512.018,356.771,510.141,354.141z"/>
	</g>
</g>
<g>
	<g>
		<path d="M303.132,158.31c-1.858-1.859-4.438-2.929-7.067-2.929c-2.629,0-5.208,1.07-7.068,2.929
			c-1.86,1.859-2.929,4.439-2.929,7.068c0,2.629,1.07,5.208,2.929,7.068s4.439,2.929,7.068,2.929c2.629,0,5.208-1.07,7.067-2.929
			c1.86-1.859,2.93-4.439,2.93-7.068C306.062,162.749,304.991,160.169,303.132,158.31z"/>
	</g>
</g>
<g>
	<g>
		<path d="M419.938,156.19c-24.91-49.293-61.579-92.664-106.044-125.424l-11.9-8.768c-3.037-2.238-7.075-2.574-10.438-0.875
			c-3.366,1.701-5.488,5.151-5.488,8.922v92.43c0,5.521,4.477,9.997,9.997,9.997s9.997-4.476,9.997-9.997V49.876
			c80.071,60.897,128.77,155.68,131.81,256.088H306.062V200.433c0-5.521-4.477-9.997-9.997-9.997c-5.52,0-9.997,4.476-9.997,9.997
			V315.96c0,2.651,1.054,5.194,2.928,7.069c1.875,1.874,4.418,2.928,7.069,2.928h151.953c5.52,0,9.997-4.476,9.997-9.997
			C458.015,260.73,444.847,205.483,419.938,156.19z"/>
	</g>
</g>
<g>
	<g>
		<path d="M218.504,70.857c-4.459-1.112-9.092,0.959-11.246,5.013L82.295,311.272c-1.643,3.098-1.545,6.833,0.263,9.839
			c1.807,3.007,5.06,4.846,8.567,4.846h124.963c5.52,0,9.997-4.476,9.997-9.997V80.558
			C226.085,75.966,222.958,71.965,218.504,70.857z M206.091,305.963H107.75l98.341-185.251V305.963z"/>
	</g>
</g>
<g>
</g>
<g>
</g>
<g>
</g>
<g>
</g>
<g>
</g>
<g>
</g>
<g>
</g>
<g>
</g>
<g>
</g>
<g>
</g>
<g>
</g>
<g>
</g>
<g>
</g>
<g>
</g>
<g>
</g>
</svg>
