<svg id="notification_x5F_phone" enable-background="new 0 0 300 300" height="512" viewBox="0 0 300 300" width="512" xmlns="http://www.w3.org/2000/svg"><g><ellipse cx="168.307" cy="216.899" rx="5.625" ry="5.625" transform="matrix(.919 -.395 .395 .919 -71.972 84.09)"/><path d="m252.452 50.921h-72.065c-9.907 0-17.968 8.06-17.968 17.967v15.408l-22.058-37.064c-2.114-3.552-5.484-6.068-9.491-7.084-4.007-1.018-8.169-.413-11.72 1.701l-82.012 48.807c-7.332 4.364-9.747 13.879-5.384 21.211l83.861 140.911c2.891 4.857 8.042 7.557 13.323 7.557 2.69 0 5.414-.701 7.888-2.173l82.012-48.809c3.552-2.114 6.068-5.484 7.085-9.491 1.017-4.006.413-8.168-1.701-11.721l-21.453-36.048 17.564-13.173h32.119c9.907 0 17.967-8.06 17.967-17.967v-52.065c0-9.907-8.06-17.967-17.967-17.967zm-34.283 146.974c-.491 1.935-1.707 3.563-3.422 4.584l-82.012 48.809c-3.541 2.108-8.138.941-10.246-2.601l-8.354-14.038 94.858-56.453 8.354 14.038c1.021 1.715 1.313 3.726.822 5.661zm-13.268-26.574-94.858 56.453-71.414-119.997c-2.108-3.542-.941-8.138 2.601-10.246l82.012-48.808c1.715-1.021 3.725-1.312 5.661-.822 1.935.491 3.562 1.707 4.583 3.422l28.933 48.617v21.014c0 9.907 8.061 17.967 17.968 17.967h2.032v20.435c0 1.515.856 2.9 2.211 3.578.566.283 1.179.422 1.789.422.85 0 1.695-.271 2.4-.8l7.513-5.634zm57.518-50.367c0 5.496-4.471 9.967-9.967 9.967h-33.453c-.866 0-1.708.281-2.4.8l-26.18 19.635v-16.435c0-2.209-1.791-4-4-4h-6.032c-5.496 0-9.968-4.471-9.968-9.967v-52.066c0-5.496 4.472-9.967 9.968-9.967h72.065c5.496 0 9.967 4.471 9.967 9.967z"/><circle cx="192.42" cy="96.921" r="6"/><circle cx="216.42" cy="96.921" r="6"/><circle cx="240.42" cy="96.921" r="6"/><circle cx="252.42" cy="164.921" r="4.787"/><circle cx="252.42" cy="184.921" r="4.787"/><circle cx="252.42" cy="204.921" r="4.787"/><path d="m108.256 107.651c-2.175-.377-4.247 1.083-4.624 3.259l-7.155 41.329c-.377 2.177 1.083 4.247 3.259 4.624.231.04.46.059.687.059 1.91 0 3.6-1.373 3.937-3.318l7.155-41.329c.377-2.178-1.082-4.248-3.259-4.624z"/><path d="m135.172 98.992c-2.174-.414-4.266 1.007-4.681 3.176l-18 94c-.416 2.17 1.007 4.266 3.176 4.681.254.048.507.072.757.072 1.881 0 3.558-1.333 3.924-3.249l18-94c.416-2.168-1.007-4.264-3.176-4.68z"/></g></svg>