<?xml version="1.0" encoding="iso-8859-1"?>
<!-- Generator: Adobe Illustrator 19.0.0, SVG Export Plug-In . SVG Version: 6.00 Build 0)  -->
<svg version="1.1" id="Layer_1" xmlns="http://www.w3.org/2000/svg" xmlns:xlink="http://www.w3.org/1999/xlink" x="0px" y="0px"
	 viewBox="0 0 512 512" style="enable-background:new 0 0 512 512;" xml:space="preserve">
<g>
	<g>
		<path d="M448.57,261.657c-9.997-24.201-33.842-41.28-61.611-41.28c-10.461,0-20.362,2.429-29.18,6.744v-22.786
			c0-32.364-16.838-61.984-43.085-79.024c0,0-9.914-15.039-10.214-15.495c0,0,3.084-2.907,3.632-3.476
			c11.626-12.058,18.407-29.192,20.49-45.664c0.635-5.027,0.666-10.17-0.378-15.146c-0.558-2.662-1.438-5.26-2.69-7.677
			c-3.382-6.527-8.365-9.616-11.586-11.006c-7.997-10.581-16.156-17.211-26.218-21.359c-26.479-10.918-54.857-3.61-72.298,18.611
			c-11.073,14.108-28.697,22.124-28.863,22.199l-15.542,6.921l15.67,6.625c5.057,2.139,9.998,3.947,14.816,5.47
			c0.717,17.728,8.88,33.561,21.442,44.465l-10.217,15.501c-26.277,17.007-43.104,46.568-43.104,79.055v33.209
			c-11.818-10.662-27.458-17.167-44.591-17.167c-27.769,0-51.615,17.079-61.611,41.28C24.985,274.177,0,291.309,0,312.737v37.661
			c0,15.087,12.576,28.784,36.777,40.446c-8.101,14.527-12.726,31.246-12.726,49.027v71.64h178.12h23.86h59.937h23.861h178.119
			v-71.64c0-17.781-4.626-34.5-12.726-49.027C499.424,379.182,512,365.485,512,350.398v-37.661
			C512,291.309,487.014,274.177,448.57,261.657z M453.084,278.894c32.087,11.907,44.147,24.787,44.147,33.843
			c0,10.457-16.075,26.012-60.509,39.282c-5.162-2.935-10.608-5.427-16.284-7.427c19.808-11.563,33.157-33.035,33.157-57.578
			C453.596,284.264,453.408,281.557,453.084,278.894z M386.959,235.146c28.6,0,51.868,23.267,51.868,51.868
			s-23.267,51.868-51.868,51.868c-28.6,0-51.868-23.267-51.868-51.868C335.091,258.413,358.359,235.146,386.959,235.146z
			 M312.648,141.992c18.679,14.753,30.362,37.593,30.362,62.342v32.653c-1.411,1.242-2.768,2.541-4.069,3.896
			c-6.469-0.627-13.002-1.183-19.584-1.662v-32.133h-14.769v31.189c-8.983-0.497-18.018-0.858-27.056-1.079l7.112-6.893v-56.663
			L312.648,141.992z M263.706,135.904l-10.232-11.73c3.331,0.553,6.746,0.856,10.232,0.856c3.466,0,6.885-0.299,10.236-0.861
			L263.706,135.904z M269.872,178.272v45.779l-6.167,5.978l-6.168-5.978v-45.744c0.319,0.001,0.63,0.001,0.974,0.001
			C261.33,178.308,265.022,178.297,269.872,178.272z M254.688,148.035l-5.832,10.201l-23.011-26.005l6.481-9.831L254.688,148.035z
			 M295.085,122.398l6.48,9.831l-23.01,26.005l-5.831-10.2L295.085,122.398z M227.049,33.218
			c13.246-16.877,34.856-22.401,55.052-14.077c8.067,3.326,14.426,8.778,21.262,18.23l1.672,2.311l2.665,0.561
			c0.474,0.141,3.13,1.079,4.89,4.743c1.201,2.501,2.371,7.164,1.164,15.203c-2.248-5.793-5.007-11.237-8.239-14.621l-4.261-4.423
			l-5.138,3.357c-0.106,0.07-10.852,6.996-28.931,10.632c-19.558,3.934-39.761,2.721-60.247-3.594
			C213.406,47.135,220.941,41.001,227.049,33.218z M216.672,69.268c39.503,8.158,68.743-2.726,81.123-8.842
			c3.119,6.369,6.124,16.698,7.867,24.601c-8.197,15.42-24.35,25.234-41.956,25.234C239.725,110.261,219.851,92.39,216.672,69.268z
			 M184.402,204.334c0-24.832,11.661-47.635,30.344-62.363l28.024,31.67v56.663l6.86,6.649c-8.925,0.065-17.877,0.269-26.805,0.606
			v-30.472h-14.769v31.153c-7.939,0.434-15.836,0.976-23.653,1.623V204.334z M256,251.698c25.034,0,49.48,1.02,72.719,2.984
			c-5.341,9.582-8.397,20.604-8.397,32.331c0,24.543,13.348,46.016,33.157,57.578c-15.958,5.624-30.095,15.143-41.253,27.421
			c-18.212,1.163-37.046,1.764-56.226,1.764s-38.013-0.602-56.227-1.764c-11.158-12.277-25.295-21.796-41.252-27.421
			c19.808-11.562,33.157-33.035,33.157-57.578c0-11.727-3.056-22.749-8.397-32.331C206.52,252.718,230.966,251.698,256,251.698z
			 M125.041,235.146c28.599,0,51.868,23.267,51.868,51.868s-23.267,51.868-51.868,51.868c-28.6,0-51.868-23.267-51.868-51.868
			C73.174,258.413,96.442,235.146,125.041,235.146z M58.917,278.893c-0.325,2.664-0.512,5.37-0.512,8.12
			c0,24.544,13.348,46.016,33.157,57.578c-5.675,2-11.121,4.492-16.284,7.427c-44.434-13.27-60.51-28.825-60.51-39.281
			C14.769,303.681,26.83,290.802,58.917,278.893z M14.769,350.398v-10.831C25.247,348.438,40.825,356.158,60,362.68
			c-5.542,4.677-10.574,9.938-15.003,15.688C23.272,368.226,14.769,357.967,14.769,350.398z M211.262,496.741h-26.719v-53.898
			h-14.769v53.898H80.309v-53.898H65.54v53.898H38.82v-56.87c0-47.542,38.679-86.221,86.221-86.221
			c47.542,0,86.221,38.679,86.221,86.221V496.741z M285.968,439.871v56.87h-59.937v-56.87c0-4.816-0.347-9.551-1.001-14.188
			c10.204,0.348,20.542,0.524,30.97,0.524s20.767-0.176,30.97-0.524C286.314,430.32,285.968,435.056,285.968,439.871z
			 M290.245,410.782c-11.256,0.431-22.69,0.655-34.245,0.655s-22.989-0.224-34.246-0.655c-2.498-8.289-6.029-16.133-10.452-23.378
			c14.851,0.756,29.829,1.141,44.697,1.141c14.868,0,29.846-0.386,44.697-1.141C296.274,394.649,292.743,402.494,290.245,410.782z
			 M446.459,496.741v-53.898H431.69v53.898h-89.463v-53.898h-14.769v53.898h-26.72v-56.87c0-47.542,38.679-86.221,86.221-86.221
			c47.542,0,86.221,38.679,86.221,86.221v56.87H446.459z M497.232,350.398L497.232,350.398c-0.001,7.57-8.504,17.828-30.229,27.97
			c-4.429-5.75-9.461-11.011-15.003-15.688c19.175-6.522,34.754-14.241,45.231-23.113V350.398z"/>
	</g>
</g>
<g>
	<g>
		<rect x="439.522" y="163.987" width="14.769" height="16.337"/>
	</g>
</g>
<g>
	<g>
		<rect x="417.979" y="82.313" width="14.769" height="16.336"/>
	</g>
</g>
<g>
	<g>
		<rect x="466.816" y="31.527" width="14.769" height="16.336"/>
	</g>
</g>
<g>
	<g>
		<rect x="354.639" y="112.905" width="14.769" height="16.337"/>
	</g>
</g>
<g>
	<g>
		<rect x="365.194" y="8.202" width="14.769" height="16.337"/>
	</g>
</g>
<g>
	<g>
		<rect x="57.462" y="163.987" width="14.769" height="16.337"/>
	</g>
</g>
<g>
	<g>
		<rect x="79.015" y="82.313" width="14.769" height="16.336"/>
	</g>
</g>
<g>
	<g>
		<rect x="30.177" y="31.527" width="14.769" height="16.336"/>
	</g>
</g>
<g>
	<g>
		<rect x="142.356" y="112.905" width="14.769" height="16.337"/>
	</g>
</g>
<g>
	<g>
		<rect x="131.791" y="8.202" width="14.769" height="16.337"/>
	</g>
</g>
<g>
</g>
<g>
</g>
<g>
</g>
<g>
</g>
<g>
</g>
<g>
</g>
<g>
</g>
<g>
</g>
<g>
</g>
<g>
</g>
<g>
</g>
<g>
</g>
<g>
</g>
<g>
</g>
<g>
</g>
</svg>
