<svg height="512pt" viewBox="0 0 512 512" width="512pt" xmlns="http://www.w3.org/2000/svg"><path d="m364.347656 260.050781c18.808594-21.027343 31.597656-47.542969 35.644532-76.8125h25.757812c11.046875 0 20-8.953125 20-20s-8.953125-20-20-20h-7.738281c-9.933594-80.9375-79.121094-143.238281-162.011719-143.238281-88.160156 0-152.664062 67.097656-162.011719 143.238281h-7.738281c-11.046875 0-20 8.953125-20 20 0 11.042969 8.953125 20 20 20h25.757812c4.046876 29.269531 16.835938 55.785157 35.644532 76.8125-87.210938 40.960938-147.652344 128.964844-147.652344 231.949219 0 11.046875 8.953125 20 20 20h472c11.046875 0 20-8.953125 20-20 0-102.90625-60.367188-190.953125-147.652344-231.949219zm-253.722656 211.949219h-69.722656c4.9375-54.234375 30.070312-103.65625 69.722656-139.683594zm23.761719-328.761719c5.527343-33.757812 24.824219-62.945312 51.914062-81.585937v34.347656c0 11.046875 8.953125 20 20 20s20-8.953125 20-20v-52.375c9.515625-2.363281 19.460938-3.625 29.699219-3.625s20.183594 1.261719 29.699219 3.625v52.375c0 11.046875 8.953125 20 20 20s20-8.953125 20-20v-34.347656c27.089843 18.640625 46.386719 47.828125 51.914062 81.585937zm225.085937 40c-9.371094 48.570313-52.207031 85.375-103.472656 85.375s-94.101562-36.804687-103.472656-85.375zm1.902344 288.761719h-210.75v-168.527344c10.289062-5.777344 21.03125-10.71875 32.113281-14.714844 21.523438 12.609376 46.5625 19.855469 73.261719 19.855469s51.738281-7.246093 73.261719-19.855469c11.082031 4 21.824219 8.9375 32.113281 14.714844zm40 0v-139.683594c39.675781 36.046875 64.785156 85.460938 69.722656 139.683594zm0 0"/></svg>