<svg height="511pt" viewBox="0 0 511 511.99953" width="511pt" xmlns="http://www.w3.org/2000/svg"><path d="m492.480469 312h-243.980469v-30h117.988281c15.285157 0 24.992188-16.546875 17.375-29.90625l-137.988281-242c-10.242188-17.964844-37.371094-10.277344-37.371094 9.90625v53.273438l-133.925781 176.640624c-9.964844 13.140626-.578125 32.085938 15.933594 32.085938h117.992187v30h-187.984375c-14.671875 0-24.363281 15.320312-18.066406 28.582031l75.996094 160c3.3125 6.972657 10.34375 11.417969 18.0625 11.417969h263.980469c5.96875 0 11.625-2.667969 15.425781-7.273438l131.988281-160c10.710938-12.984374 1.507812-32.726562-15.425781-32.726562zm-243.980469-216.554688 83.566406 146.554688h-83.566406zm-117.726562 146.554688 77.730468-102.519531v102.519531zm220.289062 230h-241.910156l-56.996094-120h397.898438zm0 0"/></svg>