<svg height="512" viewBox="0 0 46 60" width="512" xmlns="http://www.w3.org/2000/svg"><g id="Page-1" fill="none" fill-rule="evenodd"><g id="032---Gas-Cost" fill="rgb(0,0,0)" fill-rule="nonzero" transform="translate(-1)"><path id="Shape" d="m34.045 16.151c-2.2509181-1.8935959-3.8322848-4.4616514-4.51-7.324-.2460902-1.55375903-.3302077-3.12886868-.251-4.7.01-.728.02-1.455 0-2.18-.0215031-.80238043-.5206236-1.51417263-1.2676582-1.80779841-.7470345-.29362578-1.5972414-.11219365-2.1593418.46079841-.948.968-1.929 1.915-2.912 2.864-2.2255873 2.06204895-4.3146656 4.26670468-6.254 6.6-3.24 4.076-4.315 8.057-3.191 11.836.384661 1.1484513.9171315 2.2419655 1.584 3.253.6766021.9828956 1.1783132 2.0752929 1.483 3.229.2742069 1.0861029-.0342642 2.2367189-.815 3.04-1.0122939.9541493-2.4355516 1.3371896-3.79 1.02-1.1873338-.3038803-2.25162834-.9675362-3.047-1.9l-2.615-2.93c-.48743306-.5473066-1.23518046-.7841704-1.94883323-.6173317-.71365278.1668388-1.27889181.7106545-1.47316677 1.4173317l-1.047 3.849c-1.9 6.925-.5 15.2 3.321 19.677 3.20085933 3.5226508 7.3941529 5.9925346 12.027 7.084 2.5463686.6497565 5.1640394.9783092 7.792.978 7.885 0 14.6-2.93 18.417-8.04 1.5131605-2.0689058 2.5424765-4.451164 3.012-6.971 2.45-12.789-6.689-23.557-12.355-28.838zm10.387 28.461c-.4114852 2.223023-1.3159872 4.3255547-2.647 6.153-3.437 4.598-9.566 7.235-16.814 7.235-2.4582827.0006099-4.9069781-.3064429-7.289-.914-4.2355869-.9895572-8.07288925-3.2369307-11.008-6.447-3.367-3.945-4.62-11.618-2.915-17.85l1.052-3.846 2.607 2.926c1.0685247 1.2394929 2.49439807 2.1180014 4.082 2.515 2.032399.4714887 4.1653831-.1165964 5.669-1.563 1.2510506-1.2754342 1.7613351-3.1029472 1.352-4.842-.3486396-1.3827521-.9365013-2.6938496-1.737-3.874-.5731638-.8650044-1.034499-1.7990992-1.373-2.78-.924-3.112.033-6.482 2.842-10.018 1.886114-2.26226864 3.9166929-4.40007166 6.079-6.4 1-.962 1.99-1.923 2.952-2.9.017.7.007 1.4 0 2.1-.0823066 1.70805076.0142183 3.42002627.288 5.108.7533597 3.2776129 2.5457519 6.2240109 5.11 8.4 5.363 4.998 14.018 15.154 11.75 26.997z"/><path id="Shape" d="m33.041 52.392c.0615511.5007532.4864787.877228.991.878.0411241-.0001749.0821997-.0028465.123-.008 2.404748-.3313353 4.5658236-1.6412974 5.972-3.62 2.1566388-3.0154868 3.0314082-6.76229 2.433-10.421-.0474152-.3587172-.2849117-.6638389-.6210182-.7978485-.3361066-.1340097-.7183876-.0760004-.9996087.1516856-.281221.2276861-.417509.5895278-.3563731.9461629.5208384 3.1246608-.2165598 6.3284418-2.051 8.911-1.0827471 1.5437896-2.7547761 2.5721182-4.621 2.842-.263819.032454-.5038621.1686067-.6671042.3783822s-.2362498.4759111-.2028958.7396178z"/><path id="Shape" d="m29 38.5c0 .5522847.4477153 1 1 1s1-.4477153 1-1c0-2.765-2.613-5.054-6-5.437v-1.063c0-.5522847-.4477153-1-1-1s-1 .4477153-1 1v1.063c-3.387.383-6 2.672-6 5.437s2.613 5.054 6 5.437v6.989c-2.251-.335-4-1.768-4-3.426 0-.5522847-.4477153-1-1-1s-1 .4477153-1 1c0 2.765 2.613 5.054 6 5.437v1.063c0 .5522847.4477153 1 1 1s1-.4477153 1-1v-1.063c3.387-.383 6-2.672 6-5.437s-2.613-5.054-6-5.437v-6.989c2.251.335 4 1.768 4 3.426zm-10 0c0-1.658 1.749-3.091 4-3.426v6.852c-2.251-.335-4-1.768-4-3.426zm10 9c0 1.658-1.749 3.091-4 3.426v-6.852c2.251.335 4 1.768 4 3.426z"/><path id="Shape" d="m19 19c0-3.44 3.565-6.174 3.6-6.2.4418278-.3313709.5313708-.9581722.2-1.4-.3313709-.4418278-.9581722-.5313708-1.4-.2-.18.135-4.4 3.351-4.4 7.8 0 .5522847.4477153 1 1 1s1-.4477153 1-1z"/></g></g></svg>