<svg id="Layer_1" enable-background="new 0 0 512.02 512.02" height="512" viewBox="0 0 512.02 512.02" width="512" xmlns="http://www.w3.org/2000/svg"><g><path d="m436.008 102.02h-32.936v-87.02c0-3.004-.928-5.999-2.629-8.476-2.75-4.008-7.507-6.524-12.37-6.524h-312.062c-8.284 0-15 6.716-15 15v400.02c0 8.284 6.716 15 15 15h44.997v67c0 8.284 6.716 15 15 15h300c8.284 0 15-6.716 15-15v-380c0-8.285-6.716-15-15-15zm-222.957 0 160.021-64.767v64.767zm-122.04 298v-370.02h220.019l-180.649 73.115c-.02.008-.037.018-.057.026-2.599 1.066-4.886 2.884-6.516 5.172-1.781 2.501-2.781 5.561-2.797 8.634 0 .024-.004.048-.004.072v283h-29.996zm329.997 82h-270v-66.99c0-.003 0-.006 0-.01s0-.006 0-.01v-282.99h270z"/><path d="m246.009 232.019h3.787l-2.678 2.678c-5.858 5.857-5.858 15.355 0 21.213 2.929 2.929 6.768 4.394 10.606 4.394s7.678-1.465 10.606-4.394l2.678-2.678v3.787c0 8.284 6.716 15 15 15s15-6.716 15-15v-3.787l2.678 2.678c2.929 2.929 6.768 4.394 10.606 4.394s7.678-1.465 10.606-4.394c5.858-5.857 5.858-15.355 0-21.213l-2.678-2.678h3.787c8.284 0 15-6.716 15-15s-6.716-15-15-15h-3.787l2.678-2.678c5.858-5.857 5.858-15.355 0-21.213-5.857-5.857-15.355-5.857-21.213 0l-2.678 2.678v-3.786c0-8.284-6.716-15-15-15s-15 6.716-15 15v3.786l-2.678-2.678c-5.857-5.857-15.355-5.857-21.213 0s-5.858 15.355 0 21.213l2.678 2.678h-3.787c-8.284 0-15 6.716-15 15s6.718 15 15.002 15z"/><path d="m376.008 302.019h-179.999c-8.284 0-15 6.716-15 15s6.716 15 15 15h179.999c8.284 0 15-6.716 15-15s-6.716-15-15-15z"/><path d="m376.008 362.018h-179.999c-8.284 0-15 6.716-15 15s6.716 15 15 15h179.999c8.284 0 15-6.716 15-15s-6.716-15-15-15z"/><path d="m376.008 422.019h-179.999c-8.284 0-15 6.716-15 15s6.716 15 15 15h179.999c8.284 0 15-6.716 15-15s-6.716-15-15-15z"/></g></svg>