<?xml version="1.0" encoding="iso-8859-1"?>
<!-- Generator: Adobe Illustrator 19.0.0, SVG Export Plug-In . SVG Version: 6.00 Build 0)  -->
<svg version="1.1" id="Layer_1" xmlns="http://www.w3.org/2000/svg" xmlns:xlink="http://www.w3.org/1999/xlink" x="0px" y="0px"
	 viewBox="0 0 460 460" style="enable-background:new 0 0 460 460;" xml:space="preserve">
<g>
	<path d="M398.621,422.5c-9.67,0-13.822-2.774-20.106-6.973c-8.021-5.358-18.003-12.027-36.772-12.027
		c-18.77,0-28.751,6.669-36.772,12.028c-6.508,4.348-10.437,6.972-20.106,6.972c-9.668,0-13.596-2.624-20.104-6.972
		c-8.02-5.359-18.003-12.028-36.771-12.028c-18.768,0-28.751,6.669-36.771,12.028c-6.507,4.348-10.438,6.972-20.106,6.972
		c-9.668,0-13.604-2.625-20.112-6.972c-8.02-5.359-18.017-12.028-36.786-12.028s-28.781,6.669-36.801,12.028
		c-6.508,4.348-10.498,6.972-20.167,6.972c-9.668,0-13.721-2.624-20.228-6.972C29,410.169,19,403.5,0,403.5v30
		c10,0,13.846,2.624,20.353,6.972c8.02,5.359,18.251,12.028,37.02,12.028c18.769,0,28.75-6.669,36.771-12.028
		c6.508-4.348,10.436-6.972,20.104-6.972s13.596,2.625,20.104,6.972c8.021,5.359,18.002,12.028,36.771,12.028
		c18.768,0,28.75-6.669,36.77-12.028c6.507-4.348,10.435-6.972,20.102-6.972c9.669,0,13.597,2.625,20.104,6.972
		c8.021,5.359,18.001,12.028,36.77,12.028c18.77,0,28.751-6.669,36.771-12.028c6.508-4.348,10.436-6.972,20.105-6.972
		c9.669,0,13.598,2.625,20.105,6.972c8.021,5.359,18.003,12.028,36.772,12.028s28.502-6.669,36.522-12.027
		C441.428,436.274,446,433.5,455,433.5v-30c-18,0-28.502,6.669-36.522,12.027C412.193,419.726,408.291,422.5,398.621,422.5z"/>
	<path d="M460,188.038V98.415C460,48.284,419.63,7.5,369.5,7.5c-25.899,0-49.192,10.887-65.66,28.324
		C286.862,18.004,263.061,7.5,237.927,7.5C187.797,7.5,147,48.284,147,98.415v243.496c-7.42-4.69-16.993-9.411-32.785-9.411
		c-18.769,0-28.781,6.669-36.801,12.028c-6.508,4.348-10.498,6.972-20.167,6.972c-9.668,0-13.721-2.624-20.228-6.972
		C29,339.169,19,332.5,0,332.5v30c10,0,13.846,2.624,20.353,6.972c8.02,5.359,18.251,12.028,37.02,12.028
		c18.769,0,28.75-6.669,36.771-12.028c6.508-4.348,10.436-6.972,20.104-6.972s13.596,2.625,20.104,6.972
		c8.021,5.359,18.002,12.028,36.771,12.028c18.768,0,28.75-6.669,36.77-12.028c6.507-4.348,10.435-6.972,20.102-6.972
		c9.669,0,13.597,2.625,20.104,6.972c8.021,5.359,18.001,12.028,36.77,12.028c18.77,0,28.751-6.669,36.771-12.028
		c6.508-4.348,10.436-6.972,20.105-6.972c9.669,0,13.598,2.625,20.105,6.972c8.021,5.359,18.003,12.028,36.772,12.028
		s28.502-6.669,36.522-12.027C441.428,365.274,446,362.5,455,362.5v-30c-18,0-28.502,6.669-36.522,12.027
		c-6.284,4.199-10.187,6.973-19.856,6.973s-13.822-2.774-20.106-6.973c-8.021-5.358-18.003-12.027-36.772-12.027
		c-15.773,0-25.331,4.709-32.743,9.393V98.415c0-33.589,26.912-60.915,60.5-60.915c33.589,0,60.5,27.326,60.5,60.915v89.623H460z
		 M279,351.086c-5.742-0.894-9.231-3.213-14.238-6.558c-8.02-5.359-18.003-12.028-36.771-12.028
		c-18.768,0-28.751,6.669-36.771,12.028c-5,3.341-8.489,5.658-14.219,6.555v-62.045h102V351.086z M279,259.038H177v-55h102V259.038z
		 M279,98.415v75.623H177V98.415c0-33.589,27.337-60.915,60.926-60.915c19.215,0,37.272,9.164,48.703,24.322
		C281.725,73.025,279,85.403,279,98.415z"/>
</g>
<g>
</g>
<g>
</g>
<g>
</g>
<g>
</g>
<g>
</g>
<g>
</g>
<g>
</g>
<g>
</g>
<g>
</g>
<g>
</g>
<g>
</g>
<g>
</g>
<g>
</g>
<g>
</g>
<g>
</g>
</svg>
