<svg id="Capa_1" enable-background="new 0 0 512 512" height="512" viewBox="0 0 512 512" width="512" xmlns="http://www.w3.org/2000/svg"><path d="m496.484 44.089h-480.968c-8.556 0-15.516 6.96-15.516 15.515v272.549c0 8.556 6.96 15.516 15.516 15.516h8.015c4.142 0 7.5-3.358 7.5-7.5s-3.358-7.5-7.5-7.5h-8.015c-.285 0-.516-.231-.516-.516v-272.549c0-.284.231-.516.516-.516h480.968c.285 0 .516.231.516.516v272.549c0 .285-.231.516-.516.516h-8.017c-4.142 0-7.5 3.358-7.5 7.5s3.358 7.5 7.5 7.5h8.017c8.556 0 15.516-6.96 15.516-15.516v-272.549c0-8.555-6.96-15.515-15.516-15.515z"/><path d="m432.355 308.621h-8.532v-8.532c0-17.396-14.152-31.549-31.548-31.549h-32.065c-9.628 0-18.257 4.34-24.048 11.161-5.791-6.821-14.42-11.161-24.048-11.161h-32.064c-9.628 0-18.257 4.34-24.048 11.161-5.792-6.821-14.42-11.161-24.048-11.161h-32.064c-9.628 0-18.257 4.34-24.048 11.161-5.792-6.821-14.42-11.161-24.048-11.161h-32.065c-17.396 0-31.548 14.153-31.548 31.549v8.532h-8.532c-17.396 0-31.548 14.152-31.548 31.548v88.177c0 4.142 3.358 7.5 7.5 7.5h32.581v17.064h-32.585c-4.142 0-7.5 3.358-7.5 7.5 0 4.143 3.358 7.5 7.5 7.5h400.807c4.142 0 7.5-3.357 7.5-7.5 0-4.142-3.358-7.5-7.5-7.5h-32.581v-17.064h32.581c4.142 0 7.5-3.358 7.5-7.5v-88.177c-.001-17.396-14.153-31.548-31.549-31.548zm16.548 31.548v48.613h-65.162v-8.531c0-4.143-3.358-7.5-7.5-7.5s-7.5 3.357-7.5 7.5v8.531h-65.161v-48.613c0-9.125 7.423-16.548 16.548-16.548h32.064c9.125 0 16.548 7.423 16.548 16.548v8.015c0 4.142 3.358 7.5 7.5 7.5s7.5-3.358 7.5-7.5v-8.015c0-9.125 7.424-16.548 16.549-16.548h32.064c9.127 0 16.55 7.423 16.55 16.548zm-80.161 80.678h-65.161v-17.064h65.161zm-225.484-17.065h65.161v17.064h-65.161zm48.613-80.161c9.125 0 16.548 7.423 16.548 16.548v48.613h-65.161v-48.613c0-9.125 7.423-16.548 16.548-16.548zm80.161 0c9.125 0 16.548 7.423 16.548 16.548v48.613h-65.161v-48.613c0-9.125 7.423-16.548 16.548-16.548zm16.549 97.226h-65.161v-17.064h65.161zm-40.081 15v17.064h-65.161v-17.064zm15 0h65.161v17.064h-65.161zm96.709-152.307h32.065c9.125 0 16.548 7.424 16.548 16.549v8.532h-8.532c-9.628 0-18.257 4.34-24.049 11.161-5.791-6.821-14.42-11.161-24.048-11.161h-8.532v-8.532c0-9.125 7.423-16.549 16.548-16.549zm-80.161 0h32.064c9.125 0 16.548 7.424 16.548 16.549v8.532h-8.532c-9.628 0-18.257 4.34-24.048 11.161-5.791-6.821-14.42-11.161-24.048-11.161h-8.532v-8.532c0-9.125 7.423-16.549 16.548-16.549zm-80.161 0h32.064c9.125 0 16.548 7.424 16.548 16.549v8.532h-8.532c-9.628 0-18.257 4.34-24.048 11.161-5.792-6.821-14.42-11.161-24.048-11.161h-8.532v-8.532c0-9.125 7.423-16.549 16.548-16.549zm-96.71 16.549c0-9.125 7.423-16.549 16.548-16.549h32.065c9.125 0 16.548 7.424 16.548 16.549v8.532h-8.532c-9.628 0-18.257 4.34-24.048 11.161-5.792-6.821-14.421-11.161-24.049-11.161h-8.532zm-23.532 23.532h32.064c9.125 0 16.549 7.423 16.549 16.548v48.613h-65.161v-48.613c0-9.125 7.423-16.548 16.548-16.548zm-16.548 80.161h65.162v17.064h-65.162zm40.08 32.065h65.162v17.064h-65.162zm305.646 17.064h-65.162v-17.064h65.162zm-25.081-32.064v-17.064h65.162v17.064z"/><path d="m319.613 139.766c0-26.236-21.345-47.581-47.581-47.581-19.392 0-36.1 11.667-43.504 28.345-7.212-7.576-17.381-12.313-28.641-12.313-21.816 0-39.564 17.749-39.564 39.564 0 13.008 6.312 24.567 16.032 31.783v40.362c0 8.556 6.96 15.516 15.516 15.516h96.193c8.556 0 15.516-6.96 15.516-15.516v-3.897l37.243 18.622c1.059.529 2.208.792 3.354.792 1.372 0 2.739-.375 3.943-1.12 2.211-1.366 3.557-3.78 3.557-6.38v-48.097c0-2.6-1.346-5.014-3.557-6.38s-4.973-1.491-7.297-.328l-37.243 18.621v-16.418c9.826-8.722 16.033-21.434 16.033-35.575zm17.064 52.216v23.827l-23.826-11.913zm-64.645-84.796c17.965 0 32.581 14.615 32.581 32.581s-14.616 32.581-32.581 32.581-32.581-14.615-32.581-32.581 14.616-32.581 32.581-32.581zm-72.145 16.032c13.545 0 24.564 11.02 24.564 24.564s-11.02 24.564-24.564 24.564-24.564-11.02-24.564-24.564 11.019-24.564 24.564-24.564zm88.694 96.71c0 .284-.231.516-.516.516h-96.193c-.285 0-.516-.231-.516-.516v-33.518c2.75.607 5.603.937 8.532.937 14.396 0 27.017-7.731 33.939-19.257 8.679 11.676 22.572 19.257 38.206 19.257 5.817 0 11.392-1.054 16.548-2.973z"/><path d="m199.887 155.282c4.142 0 7.5-3.358 7.5-7.5s-3.358-7.5-7.5-7.5h-.08c-4.142 0-7.46 3.358-7.46 7.5s3.398 7.5 7.54 7.5z"/><path d="m272.112 147.266c4.142 0 7.5-3.358 7.5-7.5s-3.358-7.5-7.5-7.5h-.08c-4.142 0-7.46 3.358-7.46 7.5s3.398 7.5 7.54 7.5z"/></svg>