<?xml version="1.0" encoding="iso-8859-1"?>
<!-- Generator: Adobe Illustrator 19.0.0, SVG Export Plug-In . SVG Version: 6.00 Build 0)  -->
<svg version="1.1" id="Capa_1" xmlns="http://www.w3.org/2000/svg" xmlns:xlink="http://www.w3.org/1999/xlink" x="0px" y="0px"
	 viewBox="0 0 512 512" style="enable-background:new 0 0 512 512;" xml:space="preserve">
<g>
	<g>
		<g>
			<path d="M467.4,400.9l-15.133-10.089v-156.99c0.008-8.564-4.273-16.562-11.404-21.304L384,174.632V153.6
				c14.132-0.015,25.585-11.468,25.6-25.6V25.6C409.585,11.468,398.132,0.015,384,0H128c-14.132,0.015-25.585,11.468-25.6,25.6V128
				c0.015,14.132,11.468,25.585,25.6,25.6v21.032l-56.862,37.885c-7.131,4.742-11.412,12.741-11.404,21.304v156.99L44.6,400.9
				c-11.882,7.902-19.016,21.23-19,35.5v24.4c0.009,9.422,7.645,17.057,17.067,17.067v17.067
				c0.009,9.422,7.645,17.057,17.067,17.067h34.133c9.422-0.009,17.057-7.645,17.067-17.067v-17.067h290.133v17.067
				c0.009,9.422,7.645,17.057,17.067,17.067h34.133c9.422-0.009,17.057-7.645,17.067-17.067v-17.067
				c9.422-0.009,17.057-7.645,17.067-17.067v-24.4C486.416,422.13,479.282,408.802,467.4,400.9z M431.396,226.717
				c2.378,1.581,3.807,4.248,3.804,7.104v145.613L384,345.3V195.139L431.396,226.717z M119.467,128V25.6
				c0.006-4.71,3.823-8.527,8.533-8.533h256c4.71,0.006,8.527,3.823,8.533,8.533V128c-0.006,4.71-3.823,8.527-8.533,8.533H128
				C123.29,136.527,119.473,132.71,119.467,128z M366.933,153.6v187.733h-17.067V153.6H366.933z M332.8,153.6v187.733H179.2V153.6
				H332.8z M162.133,153.6v187.733h-17.067V153.6H162.133z M139.117,358.4h233.767l25.6,17.067H113.517L139.117,358.4z
				 M76.8,233.821c-0.003-2.856,1.426-5.523,3.804-7.104L128,195.139V345.3l-51.2,34.133V233.821z M87.917,392.533h336.167
				l25.6,17.067H62.317L87.917,392.533z M59.733,494.933v-17.067h34.138l0.008,17.067H59.733z M418.133,494.933v-17.067h34.138
				l0.008,17.067H418.133z M469.333,460.8H42.667v-24.4c0.055-3.352,0.774-6.66,2.115-9.733h422.438
				c1.341,3.073,2.059,6.381,2.115,9.733V460.8z"/>
			<path d="M153.6,119.467h68.267c9.422-0.009,17.057-7.645,17.067-17.067V51.2c-0.009-9.422-7.645-17.057-17.067-17.067H153.6
				c-9.422,0.009-17.057,7.645-17.067,17.067v51.2C136.543,111.822,144.178,119.457,153.6,119.467z M153.6,51.2h68.267l0.012,51.2
				H153.6V51.2z"/>
			<path d="M273.067,85.333h17.067c9.422-0.009,17.057-7.645,17.067-17.067V51.2c-0.009-9.422-7.645-17.057-17.067-17.067h-17.067
				C263.645,34.143,256.009,41.778,256,51.2v17.067C256.009,77.688,263.645,85.324,273.067,85.333z M273.067,51.2h17.067
				l0.012,17.067h-17.079V51.2z"/>
			<path d="M341.333,85.333H358.4c9.422-0.009,17.057-7.645,17.067-17.067V51.2c-0.009-9.422-7.645-17.057-17.067-17.067h-17.067
				c-9.422,0.009-17.057,7.645-17.067,17.067v17.067C324.276,77.688,331.912,85.324,341.333,85.333z M341.333,51.2H358.4
				l0.012,17.067h-17.079V51.2z"/>
			<path d="M264.533,119.467h34.133c4.713,0,8.533-3.82,8.533-8.533s-3.82-8.533-8.533-8.533h-34.133
				c-4.713,0-8.533,3.82-8.533,8.533S259.821,119.467,264.533,119.467z"/>
			<path d="M326.741,116.992c3.365,3.3,8.752,3.3,12.117,0c0.752-0.831,1.358-1.783,1.792-2.817c0.438-1.026,0.67-2.127,0.683-3.242
				c-0.033-2.259-0.917-4.422-2.475-6.059c-0.816-0.772-1.772-1.382-2.817-1.796c-3.178-1.338-6.849-0.629-9.301,1.796
				c-0.773,0.814-1.383,1.769-1.796,2.813c-0.906,2.068-0.906,4.42,0,6.487C325.38,115.209,325.987,116.162,326.741,116.992z"/>
			<path d="M363.688,103.079c-1.054,0.393-2.013,1.005-2.813,1.796c-0.754,0.828-1.362,1.78-1.796,2.813
				c-0.437,1.027-0.667,2.13-0.679,3.246c0.022,3.852,2.622,7.211,6.345,8.198c3.723,0.988,7.646-0.641,9.575-3.975
				c1.929-3.334,1.385-7.547-1.328-10.282C370.515,102.495,366.872,101.792,363.688,103.079z"/>
		</g>
	</g>
</g>
<g>
</g>
<g>
</g>
<g>
</g>
<g>
</g>
<g>
</g>
<g>
</g>
<g>
</g>
<g>
</g>
<g>
</g>
<g>
</g>
<g>
</g>
<g>
</g>
<g>
</g>
<g>
</g>
<g>
</g>
</svg>
