<svg height="480pt" viewBox="0 -16 480.00012 480" width="480pt" xmlns="http://www.w3.org/2000/svg"><path d="m256 208.003906c.046875 44.160156 35.835938 79.949219 80 80v-16c-35.347656 0-64-28.65625-64-64 0-35.347656 28.652344-64 64-64v-16c-44.164062.046875-79.953125 35.835938-80 80zm0 0"/><path d="m476.503906 1.394531c-2.179687-1.488281-4.957031-1.804687-7.414062-.847656l-180.59375 70.65625-132.753906-70.273437c-2.28125-1.207032-5.007813-1.242188-7.316407-.085938l-144 72c-2.714843 1.355469-4.425781 4.128906-4.425781 7.160156v328c-.015625 2.777344 1.414062 5.367188 3.773438 6.835938 2.363281 1.46875 5.316406 1.605468 7.800781.363281l140.320312-70.160156 132.363281 70.070312c2.050782 1.097657 4.480469 1.238281 6.644532.386719l13.097656-5.152344v5.65625c0 17.671875 14.328125 32 32 32s32-14.328125 32-32v-30.695312l106.914062-41.847656c3.066407-1.203126 5.089844-4.160157 5.085938-7.457032v-328c0-2.644531-1.308594-5.121094-3.496094-6.609375zm-148.503906 318.199219c2.65625.191406 5.296875.410156 8 .410156s5.34375-.21875 8-.410156v8.410156h-16zm8-15.589844c-53.019531 0-96-42.980468-96-96 0-53.019531 42.980469-96 96-96s96 42.980469 96 96c-.058594 52.996094-43.003906 95.941406-96 96zm-40 92.296875v-20.296875h-16v18.710938l-120-63.511719v-275.199219h-16v275.054688l-128 64v-310.113282l128-64v19.058594h16v-18.710937l120 63.511719v26.335937c-34.648438 19.941406-56 56.871094-56 96.847656 0 39.972657 21.351562 76.90625 56 96.847657v55.167968h16v-47.511718c5.203125 2.015624 10.550781 3.640624 16 4.855468v10.65625c-4.417969 0-8 3.582032-8 8v57.175782zm56 19.703125c0 8.835938-7.164062 16-16 16s-16-7.164062-16-16v-72h32zm112-85.464844-96 37.601563v-32.136719c0-4.417968-3.582031-8-8-8v-10.65625c41.101562-8.914062 73.738281-40.117187 84.492188-80.777344 10.753906-40.660156-2.195313-83.914062-33.515626-111.980468-31.324218-28.066406-75.734374-36.207032-114.976562-21.074219v-18.046875l168-65.746094zm0 0"/></svg>