<?xml version="1.0" encoding="iso-8859-1"?>
<!-- Generator: Adobe Illustrator 19.0.0, SVG Export Plug-In . SVG Version: 6.00 Build 0)  -->
<svg version="1.1" id="Capa_1" xmlns="http://www.w3.org/2000/svg" xmlns:xlink="http://www.w3.org/1999/xlink" x="0px" y="0px"
	 viewBox="0 0 512 512" style="enable-background:new 0 0 512 512;" xml:space="preserve">
<g>
	<g>
		<path d="M168.155,176.626c-2.309-5.391-5.889-9.048-10.642-10.87c-9.563-3.667-20.536,1.409-31.146,6.32
			c-2.229,1.032-4.334,2.006-6.411,2.896c-18.725,8.023-31.385,39.71-23.354,58.457c2.304,5.375,5.934,9.069,10.791,10.977
			c2.532,0.995,5.171,1.421,7.888,1.421c8.344,0,17.41-4.019,26.248-7.938c1.531-0.679,3.046-1.351,4.529-1.986
			C164.434,228.031,176.412,195.9,168.155,176.626z M153.12,204.966c-3.012,8.412-7.987,14.966-12.985,17.106
			c-1.54,0.66-3.113,1.356-4.702,2.061c-7.631,3.383-18.082,8.021-22.537,6.268c-0.439-0.173-1.466-0.577-2.462-2.898
			c-4.776-11.147,4.32-33.935,15.447-38.702c2.275-0.974,4.578-2.04,6.806-3.071c5.774-2.672,13.393-6.2,17.692-6.2
			c0.669,0,1.258,0.085,1.746,0.274c0.303,0.116,1.225,0.469,2.2,2.746C156.582,187.821,156.109,196.619,153.12,204.966z"/>
	</g>
</g>
<g>
	<g>
		<path d="M328.277,232.436c-19.317,0-37.619,6.186-52.929,17.891c-3.3,2.524-3.93,7.245-1.406,10.545
			c2.524,3.3,7.244,3.931,10.545,1.407c12.663-9.681,27.805-14.797,43.79-14.797c39.795,0,72.17,32.375,72.17,72.171
			c0,39.795-32.375,72.17-72.17,72.17s-72.171-32.375-72.171-72.17c0-13.048,3.517-25.83,10.17-36.964
			c2.13-3.567,0.968-8.186-2.599-10.317c-3.566-2.13-8.186-0.969-10.318,2.599c-8.047,13.465-12.301,28.917-12.301,44.682
			c0,48.091,39.125,87.216,87.217,87.216c48.092,0,87.216-39.125,87.216-87.216C415.493,271.561,376.368,232.436,328.277,232.436z"
			/>
	</g>
</g>
<g>
	<g>
		<path d="M503.296,452.988L447.908,397.6c-0.307-0.307-0.637-0.574-0.98-0.816V229.454c0-4.155-3.367-7.523-7.523-7.523
			s-7.523,3.368-7.523,7.523v33.441c-5.292-9.521-11.94-18.364-19.855-26.28c-5.382-5.382-11.162-10.127-17.241-14.252
			c8.005-9.377,14.526-20.486,17.777-30.595c7.162-17.252,13.729-34.874,19.318-51.701v59.295c0,4.155,3.367,7.523,7.523,7.523
			s7.523-3.368,7.523-7.523V92.322c0-4.155-3.367-7.523-7.523-7.523h-1.618H63.312V15.738c0-4.155-3.368-7.523-7.523-7.523
			C25.027,8.215,0,33.243,0,64.004v298.615c0,0.548,0.062,1.08,0.173,1.594c0.99,13.041,6.635,25.155,16.066,34.354
			c10.091,9.843,23.413,15.263,37.512,15.263h198.498h4.013c20.588,15.939,45.719,24.578,72.18,24.578
			c24.005,0,46.913-7.114,66.33-20.332l11.012,11.012c-2.907,2.94-2.899,7.68,0.029,10.608l55.389,55.388
			c5.803,5.802,13.425,8.703,21.047,8.703c7.621,0,15.244-2.901,21.047-8.703h0.001
			C514.902,483.477,514.902,464.593,503.296,452.988z M431.883,377.506v14.647l-5.588-5.588
			C428.299,383.623,430.163,380.601,431.883,377.506z M256.499,112.13c2.116-1.882,6.917-5.52,17.788-12.285h153.902
			c-6.657,25.69-17.238,56.61-29.64,86.446c-0.085,0.205-0.161,0.413-0.229,0.625c-2.872,9.11-9.108,19.345-16.737,27.691
			c-44.307-22.255-99.794-14.924-136.726,22.007c-5.918,5.917-11.123,12.356-15.589,19.206c-2.649-0.553-5.396-1.003-8.24-1.318
			c-19.58-2.173-28.285-8.241-29.789-12.778c-1.425-4.296,3.261-9.509,6.182-12.235c5.792-5.406,10.025-10.155,13.425-13.972
			c7.902-8.867,10.025-11.252,18.896-10.618c37.952,2.712,61.962-0.557,71.363-9.713c5.459-5.316,6.549-12.894,2.847-19.774
			c-3.813-7.084-12.086-12.473-23.295-15.177c-12.074-2.913-27.152-2.55-43.605,1.049c-29.441,6.442-41.424,6.096-45.943,5.324
			c1.192-1.455,3.266-3.541,6.677-6.133c21.275-16.164,69.429-17.06,69.909-17.068c3.261-0.046,6.119-2.19,7.08-5.305
			c0.962-3.117-0.196-6.5-2.864-8.375c-8.885-6.248-16.033-14.788-15.682-17.307C256.229,112.42,256.289,112.316,256.499,112.13z
			 M63.312,99.845h52.765c-5.564,16.939-20.818,52.11-52.765,57.716V99.845z M49.407,398.539
			c-18.99-2.08-33.699-17.652-34.326-37.194c0.04-1.321,0.145-2.623,0.306-3.907c0.015-0.116,0.029-0.234,0.044-0.349
			c0.061-0.458,0.134-0.912,0.21-1.364c0.054-0.314,0.107-0.629,0.168-0.941c0.045-0.236,0.095-0.47,0.144-0.705
			c3.937-18.378,20.298-32.203,39.835-32.203c4.155,0,7.523-3.368,7.523-7.523v-44.302c0-4.155-3.368-7.523-7.523-7.523
			s-7.523,3.368-7.523,7.523v37.28c-11.813,1.588-22.772,6.904-31.432,15.362c-0.612,0.598-1.206,1.21-1.786,1.831V64.004
			c0-19.896,14.336-36.507,33.22-40.047v216.001c0,4.155,3.368,7.523,7.523,7.523c4.155,0,7.523-3.368,7.523-7.523v-67.175
			c22.018-2.91,40.81-16.732,54.675-40.356c7.511-12.797,11.8-25.424,13.861-32.583h115.87c-0.43,0.357-0.843,0.706-1.217,1.039
			c-3.671,3.263-5.541,7.683-5.265,12.443c0.331,5.728,3.866,11.431,8.048,16.255c-17.823,1.891-44.53,6.703-60.603,18.913
			c-11.952,9.08-16.289,17.413-12.892,24.77c5.011,10.853,23.693,11.641,64.476,2.717c31.709-6.936,47.671,1.425,50.435,6.561
			c0.626,1.163,0.355,1.426-0.094,1.864c-4.645,4.524-24.935,7.974-59.793,5.484c-16.251-1.164-22.847,6.243-31.201,15.616
			c-3.362,3.773-7.173,8.049-12.458,12.982c-12.939,12.076-11.943,22.708-10.197,27.971c4.061,12.246,19.123,20.413,42.411,22.996
			c0.716,0.079,1.413,0.179,2.113,0.276c-7.364,15.579-11.247,32.725-11.247,50.469c0,13.747,2.333,27.135,6.808,39.714
			c-9.698-3.891-20.301-5.529-31.542-4.804c-23.24,1.503-28.338-2.993-33.736-7.75c-7.137-6.29-14.069-10.989-32.62-9.561
			C84.869,340.436,57.447,384.29,49.407,398.539z M66.729,398.785L66.729,398.785c11.304-18.016,32.247-44.344,53.568-45.983
			c13.69-1.052,16.804,1.692,21.517,5.847c6.765,5.962,15.184,13.38,44.655,11.477c20.956-1.35,35.308,7.515,44.583,17.113
			c2.649,3.831,5.538,7.523,8.659,11.059c0.102,0.162,0.21,0.327,0.309,0.487H66.729z M401.36,393.147
			c-3.235,3.236-6.729,6.292-10.384,9.088c-0.103,0.078-0.196,0.167-0.294,0.251c-17.826,13.543-39.468,20.878-62.241,20.878
			c-23.875,0-46.51-8.062-64.805-22.888c-0.006-0.004-0.01-0.01-0.016-0.015c-2.079-1.683-4.105-3.459-6.048-5.295
			c-0.047-0.045-0.096-0.088-0.143-0.133c-0.655-0.621-1.3-1.25-1.935-1.884c-1.408-1.408-2.765-2.855-4.083-4.328
			c-2.241-3.371-4.995-7.026-8.325-10.642c-0.004-0.004-0.008-0.008-0.012-0.013c-11.569-16.962-17.797-36.982-17.797-57.963
			c0-27.555,10.731-53.462,30.216-72.947c20.112-20.112,46.529-30.167,72.947-30.167s52.835,10.056,72.947,30.167
			c19.486,19.485,30.216,45.391,30.216,72.947c0,22.756-7.324,44.383-20.847,62.201c-0.104,0.119-0.212,0.235-0.309,0.361
			C407.653,386.419,404.595,389.912,401.36,393.147z M406.734,408.759c1.805-1.6,3.574-3.253,5.294-4.973
			c1.71-1.71,3.354-3.469,4.946-5.263l9.686,9.687l-10.238,10.238L406.734,408.759z M492.658,484.443
			c-5.741,5.74-15.078,5.738-20.817,0l-50.068-50.068l20.816-20.817l50.068,50.068C498.396,469.367,498.396,478.705,492.658,484.443
			z"/>
	</g>
</g>
<g>
</g>
<g>
</g>
<g>
</g>
<g>
</g>
<g>
</g>
<g>
</g>
<g>
</g>
<g>
</g>
<g>
</g>
<g>
</g>
<g>
</g>
<g>
</g>
<g>
</g>
<g>
</g>
<g>
</g>
</svg>
